SplineFontDB: 3.0
FontName: VampiroOne-Regular
FullName: Vampiro One
FamilyName: Vampiro One
Weight: Book
Copyright: Copyright (c) 2012, Sorkin Type Co (www.sorkintype.com)\nwith Reserved Font Name 'Vampiro'.
Version: 1.000
ItalicAngle: -35
UnderlinePosition: -50
UnderlineWidth: 50
Ascent: 800
Descent: 200
sfntRevision: 0x00010042
LayerCount: 2
Layer: 0 1 "Back"  1
Layer: 1 1 "Fore"  0
XUID: [1021 631 1661839179 3006750]
FSType: 0
OS2Version: 3
OS2_WeightWidthSlopeOnly: 0
OS2_UseTypoMetrics: 1
CreationTime: 1353914880
ModificationTime: 1353896983
PfmFamily: 17
TTFWeight: 400
TTFWidth: 5
LineGap: 0
VLineGap: 0
Panose: 2 0 5 3 0 0 0 2 0 4
OS2TypoAscent: 956
OS2TypoAOffset: 0
OS2TypoDescent: -294
OS2TypoDOffset: 0
OS2TypoLinegap: 0
OS2WinAscent: 956
OS2WinAOffset: 0
OS2WinDescent: 294
OS2WinDOffset: 0
HheadAscent: 956
HheadAOffset: 0
HheadDescent: -294
HheadDOffset: 0
OS2SubXSize: 700
OS2SubYSize: 650
OS2SubXOff: 0
OS2SubYOff: 140
OS2SupXSize: 700
OS2SupYSize: 650
OS2SupXOff: 0
OS2SupYOff: 477
OS2StrikeYSize: 50
OS2StrikeYPos: 250
OS2Vendor: 'STC '
OS2CodePages: 00000001.00000000
OS2UnicodeRanges: 800000ef.5000004b.00000000.00000000
DEI: 91125
TtTable: prep
MPPEM
PUSHW_1
 200
GT
IF
PUSHB_2
 1
 1
INSTCTRL
EIF
PUSHW_2
 2048
 2048
MUL
DUP
PUSHB_1
 1
SWAP
WCVTP
DUP
PUSHB_1
 3
SWAP
WCVTF
PUSHB_1
 20
RCVT
DUP
DUP
MPPEM
PUSHW_1
 13
LTEQ
MPPEM
PUSHB_1
 6
GTEQ
AND
IF
PUSHB_1
 52
ELSE
PUSHB_1
 40
EIF
ADD
FLOOR
DUP
ROLL
NEQ
IF
PUSHB_1
 2
CINDEX
SUB
PUSHB_1
 1
RCVT
MUL
SWAP
DIV
PUSHB_1
 2
SWAP
WCVTP
PUSHB_4
 10
 10
 5
 4
CALL
PUSHB_4
 11
 16
 5
 4
CALL
PUSHB_4
 17
 22
 5
 4
CALL
EIF
PUSHB_3
 4
 40
 8
RCVT
GT
WCVTP
PUSHB_4
 11
 16
 6
 4
CALL
PUSHB_2
 6
 1
WCVTP
PUSHB_2
 36
 1
GETINFO
LTEQ
IF
PUSHB_1
 64
GETINFO
IF
PUSHB_2
 6
 3
WCVTP
PUSHB_2
 38
 1
GETINFO
LTEQ
IF
PUSHW_1
 1024
GETINFO
IF
PUSHB_2
 6
 3
WCVTP
EIF
EIF
EIF
EIF
PUSHW_1
 511
SCANCTRL
PUSHB_1
 4
SCANTYPE
PUSHB_2
 5
 0
WCVTP
EndTTInstrs
TtTable: fpgm
PUSHB_1
 0
FDEF
PUSHB_1
 32
ADD
FLOOR
ENDF
PUSHB_1
 1
FDEF
DUP
ABS
DUP

StartChar: .notdef
Encoding: 65536 -1 0
Width: 636
Flags: W
LayerCount: 2
Fore
SplineSet
48 922 m 1,0,-1
 588 922 l 1,1,-1
 588 0 l 1,2,-1
 48 0 l 1,3,-1
 48 922 l 1,0,-1
249 189 m 1,4,-1
 291 286 l 1,5,-1
 318 361 l 1,6,-1
 345 286 l 1,7,-1
 387 189 l 1,8,-1
 495 189 l 1,9,-1
 367 448 l 1,10,-1
 495 703 l 1,11,-1
 381 703 l 1,12,-1
 340 606 l 1,13,-1
 317 540 l 1,14,-1
 295 606 l 1,15,-1
 255 703 l 1,16,-1
 141 703 l 1,17,-1
 269 449 l 1,18,-1
 141 189 l 1,19,-1
 249 189 l 1,4,-1
EndSplineSet
EndChar

StartChar: exclam
Encoding: 33 33 26
Width: 482
GlyphClass: 2
Flags: W
LayerCount: 2
Fore
SplineSet
99 246 m 1,0,1
 159 383 159 383 203 458 c 0,2,3
 272 577 272 577 374 718 c 1,4,-1
 486 619 l 1,5,6
 384 478 384 478 341 405 c 0,7,8
 270 284 270 284 211 143 c 1,9,-1
 99 246 l 1,0,1
27 76 m 128,-1,11
 54 103 54 103 93 103 c 256,12,13
 132 103 132 103 159 76 c 128,-1,14
 186 49 186 49 186 10 c 0,15,16
 186 -50 186 -50 129 -76 c 1,17,18
 73 -100 73 -100 27 -56 c 0,19,20
 0 -30 0 -30 0 9.5 c 128,-1,10
 0 49 0 49 27 76 c 128,-1,11
EndSplineSet
EndChar

StartChar: numbersign
Encoding: 35 35 28
Width: 688
GlyphClass: 2
Flags: W
LayerCount: 2
Fore
SplineSet
295 187 m 1,0,1
 266 199 266 199 219 218 c 1,2,-1
 174 94 l 1,3,-1
 71 139 l 1,4,-1
 116 256 l 1,5,-1
 37 283 l 1,6,-1
 78 380 l 1,7,-1
 157 354 l 1,8,-1
 195 438 l 1,9,10
 176 445 176 445 157 451 c 128,-1,11
 138 457 138 457 119 463 c 1,12,-1
 159 562 l 1,13,14
 214 544 214 544 242 533 c 1,15,-1
 297 641 l 1,16,-1
 395 595 l 1,17,18
 360 530 360 530 343 496 c 1,19,-1
 421 465 l 1,20,-1
 474 566 l 1,21,-1
 571 522 l 1,22,-1
 519 422 l 1,23,-1
 598 385 l 1,24,-1
 553 289 l 1,25,-1
 473 327 l 1,26,27
 463 306 463 306 454 285 c 128,-1,28
 445 264 445 264 436 243 c 1,29,-1
 517 204 l 1,30,-1
 472 107 l 1,31,-1
 396 144 l 1,32,33
 360 50 360 50 351 22 c 1,34,-1
 248 65 l 1,35,-1
 295 187 l 1,0,1
374 369 m 1,36,-1
 296 401 l 1,37,38
 286 380 286 380 277 359 c 128,-1,39
 268 338 268 338 259 317 c 1,40,-1
 336 286 l 1,41,-1
 374 369 l 1,36,-1
EndSplineSet
EndChar

StartChar: dollar
Encoding: 36 36 29
Width: 661
GlyphClass: 2
Flags: W
LayerCount: 2
Fore
SplineSet
182 29 m 1,0,1
 146 -16 146 -16 94 -84 c 1,2,-1
 16 -23 l 1,3,4
 57 28 57 28 87 71 c 1,5,6
 27 102 27 102 -15 129 c 1,7,-1
 47 251 l 1,8,9
 181 166 181 166 306 133 c 1,10,11
 283 176 283 176 257.5 212 c 128,-1,12
 232 248 232 248 210 284 c 0,13,14
 155 372 155 372 141 443 c 1,15,16
 240 551 240 551 336 617 c 0,17,18
 370 640 370 640 406 663 c 1,19,-1
 460 629 l 1,20,-1
 541 742 l 1,21,-1
 619 684 l 1,22,-1
 545 577 l 1,23,-1
 603 542 l 1,24,25
 591 470 591 470 541 360 c 1,26,-1
 419 419 l 1,27,28
 433 451 433 451 440.5 483.5 c 128,-1,29
 448 516 448 516 455 548 c 1,30,31
 395 508 395 508 350 461 c 0,32,33
 333 444 333 444 311 420 c 1,34,35
 322 370 322 370 374 289 c 0,36,37
 396 254 396 254 422 214.5 c 128,-1,38
 448 175 448 175 473 126 c 1,39,-1
 393 -16 l 1,40,41
 283 -7 283 -7 182 29 c 1,0,1
EndSplineSet
EndChar

StartChar: percent
Encoding: 37 37 30
Width: 788
GlyphClass: 2
Flags: W
LayerCount: 2
Fore
SplineSet
101 535 m 0,0,1
 101 590 101 590 139 628 c 128,-1,2
 177 666 177 666 233 666 c 0,3,4
 287 666 287 666 325 628 c 128,-1,5
 363 590 363 590 363 535 c 0,6,7
 363 479 363 479 325 442 c 0,8,9
 285 404 285 404 232 404 c 128,-1,10
 179 404 179 404 140 441.5 c 128,-1,11
 101 479 101 479 101 535 c 0,0,1
40 85 m 1,12,13
 208 249 208 249 316 339.5 c 128,-1,14
 424 430 424 430 504 489 c 128,-1,15
 584 548 584 548 681 614 c 1,16,-1
 735 546 l 1,17,18
 544 417 544 417 438.5 330 c 128,-1,19
 333 243 333 243 259.5 174.5 c 128,-1,20
 186 106 186 106 103 22 c 1,21,-1
 40 85 l 1,12,13
188 491 m 128,-1,23
 206 473 206 473 231.5 473 c 128,-1,24
 257 473 257 473 275 491 c 128,-1,25
 293 509 293 509 293 535 c 256,26,27
 293 561 293 561 275 579 c 128,-1,28
 257 597 257 597 231.5 597 c 128,-1,29
 206 597 206 597 188 579 c 128,-1,30
 170 561 170 561 170 535 c 256,31,22
 170 509 170 509 188 491 c 128,-1,23
380.5 71.5 m 128,-1,33
 360 121 360 121 381 171 c 128,-1,34
 402 221 402 221 452.5 242.5 c 128,-1,35
 503 264 503 264 553 242.5 c 128,-1,36
 603 221 603 221 623.5 171 c 128,-1,37
 644 121 644 121 623.5 72 c 128,-1,38
 603 23 603 23 553 0.5 c 128,-1,39
 503 -22 503 -22 452 0 c 128,-1,32
 401 22 401 22 380.5 71.5 c 128,-1,33
458 77 m 256,40,41
 476 59 476 59 501.5 59 c 128,-1,42
 527 59 527 59 545 77 c 128,-1,43
 563 95 563 95 563 121 c 256,44,45
 563 147 563 147 545 165 c 128,-1,46
 527 183 527 183 501.5 183 c 128,-1,47
 476 183 476 183 458 165 c 128,-1,48
 440 147 440 147 440 121 c 256,49,50
 440 95 440 95 458 77 c 256,40,41
EndSplineSet
EndChar

StartChar: ampersand
Encoding: 38 38 31
Width: 756
GlyphClass: 2
Flags: W
LayerCount: 2
Fore
SplineSet
458 85 m 1,0,1
 495 22 495 22 532 -24 c 1,2,-1
 404 -98 l 1,3,4
 357 -35 357 -35 320 33 c 1,5,6
 191 -8 191 -8 49 -20 c 1,7,-1
 -77 166 l 1,8,9
 -2 239 -2 239 48 272 c 0,10,11
 130 327 130 327 219 369 c 1,12,13
 211 500 211 500 249 630 c 1,14,-1
 418 679 l 1,15,16
 510 634 510 634 590 573 c 1,17,-1
 640 449 l 1,18,19
 572 390 572 390 528 365 c 0,20,21
 451 323 451 323 375 300 c 1,22,23
 384 251 384 251 406 195 c 1,24,25
 491 228 491 228 555 268 c 1,26,-1
 615 171 l 1,27,28
 546 124 546 124 458 85 c 1,0,1
371 559 m 1,29,30
 358 493 358 493 360 418 c 1,31,32
 439 446 439 446 495 486 c 1,33,34
 426 531 426 531 371 559 c 1,29,30
85 126 m 1,35,36
 170 131 170 131 265 152 c 1,37,38
 249 194 249 194 238 240 c 1,39,40
 176 204 176 204 140.5 173.5 c 128,-1,41
 105 143 105 143 85 126 c 1,35,36
EndSplineSet
EndChar

StartChar: quotesingle
Encoding: 39 39 32
Width: 260
GlyphClass: 2
Flags: W
LayerCount: 2
Fore
SplineSet
66 465 m 1,0,1
 163 624 163 624 217 726 c 1,2,-1
 331 662 l 1,3,4
 270 554 270 554 232.5 498 c 128,-1,5
 195 442 195 442 172 407 c 1,6,-1
 66 465 l 1,0,1
EndSplineSet
EndChar

StartChar: parenleft
Encoding: 40 40 33
Width: 431
GlyphClass: 2
Flags: W
LayerCount: 2
Fore
SplineSet
58 -100 m 1,0,1
 43 205 43 205 139 402 c 0,2,3
 246 620 246 620 508 756 c 1,4,-1
 581 683 l 1,5,6
 458 615 458 615 377 532 c 0,7,8
 220 371 220 371 182 114 c 0,9,10
 164 -14 164 -14 166 -173 c 1,11,-1
 58 -100 l 1,0,1
EndSplineSet
EndChar

StartChar: asterisk
Encoding: 42 42 35
Width: 576
GlyphClass: 2
Flags: W
LayerCount: 2
Fore
SplineSet
287 433 m 1,0,1
 219 397 219 397 166 359 c 1,2,-1
 111 443 l 1,3,4
 181 498 181 498 228 528 c 1,5,6
 178 578 178 578 124 620 c 1,7,-1
 185 697 l 1,8,9
 266 642 266 642 305 610 c 1,10,11
 342 679 342 679 362 742 c 1,12,-1
 454 706 l 1,13,14
 431 623 431 623 408 565 c 1,15,16
 490 553 490 553 544 553 c 1,17,-1
 539 455 l 1,18,19
 445 450 445 450 398 453 c 1,20,21
 409 381 409 381 428 319 c 1,22,-1
 334 292 l 1,23,24
 308 359 308 359 287 433 c 1,0,1
EndSplineSet
EndChar

StartChar: plus
Encoding: 43 43 36
Width: 609
GlyphClass: 2
Flags: W
LayerCount: 2
Fore
SplineSet
148 140 m 1,0,1
 164 193 164 193 191 272 c 1,2,3
 126 293 126 293 58 310 c 1,4,-1
 103 424 l 1,5,6
 151 411 151 411 233 385 c 1,7,8
 268 476 268 476 288 518 c 1,9,-1
 399 473 l 1,10,11
 376 421 376 421 347 346 c 1,12,13
 457 303 457 303 481 292 c 1,14,-1
 436 181 l 1,15,16
 382 204 382 204 305 233 c 1,17,18
 274 141 274 141 263 100 c 1,19,-1
 148 140 l 1,0,1
EndSplineSet
EndChar

StartChar: comma
Encoding: 44 44 37
Width: 367
GlyphClass: 2
Flags: W
LayerCount: 2
Fore
SplineSet
-88 -165 m 1,0,1
 12 -4 12 -4 57 103 c 1,2,-1
 187 26 l 1,3,4
 114 -104 114 -104 18 -223 c 1,5,-1
 -88 -165 l 1,0,1
EndSplineSet
EndChar

StartChar: hyphen
Encoding: 45 45 38
Width: 591
GlyphClass: 2
Flags: W
LayerCount: 2
Fore
SplineSet
415 181 m 1,0,1
 222 264 222 264 37 310 c 1,2,-1
 83 424 l 1,3,4
 275 374 275 374 461 292 c 1,5,-1
 415 181 l 1,0,1
EndSplineSet
EndChar

StartChar: period
Encoding: 46 46 39
Width: 366
GlyphClass: 2
Flags: W
LayerCount: 2
Fore
SplineSet
27 76 m 128,-1,1
 54 103 54 103 93 103 c 256,2,3
 132 103 132 103 159 76 c 128,-1,4
 186 49 186 49 186 10 c 0,5,6
 186 -50 186 -50 129 -76 c 1,7,8
 73 -100 73 -100 27 -56 c 0,9,10
 0 -30 0 -30 0 9.5 c 128,-1,0
 0 49 0 49 27 76 c 128,-1,1
EndSplineSet
EndChar

StartChar: slash
Encoding: 47 47 40
Width: 563
GlyphClass: 2
Flags: W
LayerCount: 2
Fore
SplineSet
-19 67 m 1,0,1
 226 330 226 330 440 526 c 1,2,3
 516 597 516 597 600 671 c 1,4,-1
 659 603 l 1,5,6
 468 435 468 435 373 340 c 0,7,8
 206 175 206 175 48 -5 c 1,9,-1
 -19 67 l 1,0,1
EndSplineSet
EndChar

StartChar: zero
Encoding: 48 48 41
Width: 664
GlyphClass: 2
Flags: W
LayerCount: 2
Fore
SplineSet
46 61 m 1,0,1
 -25 325 -25 325 119 504 c 0,2,3
 216 624 216 624 389 674 c 1,4,-1
 560 575 l 1,5,6
 614 305 614 305 488 144 c 1,7,8
 401 31 401 31 217 -36 c 1,9,-1
 46 61 l 1,0,1
173 103 m 1,10,11
 295 145 295 145 364 226 c 0,12,13
 449 327 449 327 430 486 c 0,14,15
 427 511 427 511 422 539 c 1,16,17
 302 501 302 501 234 412 c 0,18,19
 156 311 156 311 166 148 c 0,20,21
 168 126 168 126 173 103 c 1,10,11
EndSplineSet
EndChar

StartChar: one
Encoding: 49 49 42
Width: 476
GlyphClass: 2
Flags: W
LayerCount: 2
Fore
SplineSet
90 552 m 1,0,1
 190 610 190 610 359 667 c 1,2,-1
 476 544 l 1,3,4
 271 252 271 252 131 -29 c 1,5,-1
 22 68 l 1,6,7
 133 279 133 279 293 499 c 1,8,9
 223 471 223 471 141 428 c 1,10,-1
 90 552 l 1,0,1
EndSplineSet
EndChar

StartChar: two
Encoding: 50 50 43
Width: 607
GlyphClass: 2
Flags: W
LayerCount: 2
Fore
SplineSet
99 161 m 1,0,1
 211 122 211 122 424 99 c 1,2,-1
 366 -27 l 1,3,4
 184 -5 184 -5 115 14 c 128,-1,5
 46 33 46 33 10 47 c 1,6,-1
 -45 226 l 1,7,8
 17 285 17 285 127 330 c 1,9,-1
 310 401 l 1,10,11
 407 442 407 442 452 495 c 1,12,13
 406 519 406 519 373 527 c 0,14,15
 273 550 273 550 157 533 c 1,16,-1
 216 654 l 1,17,18
 242 664 242 664 285 664 c 128,-1,19
 328 664 328 664 360.5 659 c 128,-1,20
 393 654 393 654 424 646 c 0,21,22
 490 628 490 628 533 599 c 1,23,-1
 589 444 l 1,24,25
 532 352 532 352 440 304 c 0,26,27
 399 282 399 282 356 267.5 c 128,-1,28
 313 253 313 253 269 239 c 0,29,30
 162 205 162 205 99 161 c 1,0,1
EndSplineSet
EndChar

StartChar: three
Encoding: 51 51 44
Width: 599
GlyphClass: 2
Flags: W
LayerCount: 2
Fore
SplineSet
467 127 m 1,0,1
 335 -17 335 -17 136 -17 c 0,2,3
 50 -17 50 -17 -40 12 c 1,4,-1
 -57 148 l 1,5,6
 45 120 45 120 110.5 120 c 128,-1,7
 176 120 176 120 226.5 134 c 128,-1,8
 277 148 277 148 318 183 c 1,9,10
 251 228 251 228 134 276 c 0,11,12
 101 289 101 289 73 297 c 1,13,-1
 130 412 l 1,14,15
 320 412 320 412 449 488 c 1,16,17
 341 546 341 546 198 539 c 0,18,19
 179 538 179 538 160 537 c 1,20,-1
 221 660 l 1,21,22
 329 673 329 673 414 646 c 0,23,24
 472 627 472 627 526 597 c 1,25,-1
 584 432 l 1,26,27
 472 358 472 358 376 332 c 0,28,29
 343 323 343 323 309 317 c 1,30,31
 374 286 374 286 421 253 c 1,32,-1
 467 127 l 1,0,1
EndSplineSet
EndChar

StartChar: four
Encoding: 52 52 45
Width: 664
GlyphClass: 2
Flags: W
LayerCount: 2
Fore
SplineSet
525 112 m 1,0,1
 479 130 479 130 390 161 c 1,2,3
 331 43 331 43 301 -29 c 1,4,-1
 192 67 l 1,5,6
 225 144 225 144 255 203 c 1,7,8
 180 224 180 224 48 257 c 1,9,-1
 27 402 l 1,10,11
 134 540 134 540 322 680 c 1,12,-1
 419 602 l 1,13,14
 347 542 347 542 286.5 488.5 c 128,-1,15
 226 435 226 435 168 372 c 1,16,17
 270 342 270 342 323 324 c 1,18,19
 423 491 423 491 550 651 c 1,20,-1
 645 573 l 1,21,22
 544 439 544 439 453 278 c 1,23,24
 540 246 540 246 578 230 c 1,25,-1
 525 112 l 1,0,1
EndSplineSet
EndChar

StartChar: five
Encoding: 53 53 46
Width: 603
GlyphClass: 2
Flags: W
LayerCount: 2
Fore
SplineSet
553 442 m 1,0,1
 401 507 401 507 292 533 c 1,2,-1
 196 395 l 1,3,4
 314 361 314 361 434 308 c 1,5,-1
 482 176 l 1,6,7
 417 79 417 79 325.5 33 c 128,-1,8
 234 -13 234 -13 137.5 -13 c 128,-1,9
 41 -13 41 -13 -46 14 c 1,10,-1
 -61 148 l 1,11,12
 89 95 89 95 222 142 c 0,13,14
 282 164 282 164 327 217 c 1,15,16
 205 266 205 266 74 301 c 1,17,-1
 67 423 l 1,18,-1
 208 626 l 1,19,20
 276 655 276 655 353 667 c 1,21,22
 449 642 449 642 507.5 618 c 128,-1,23
 566 594 566 594 607 577 c 1,24,-1
 553 442 l 1,0,1
EndSplineSet
EndChar

StartChar: six
Encoding: 54 54 47
Width: 610
GlyphClass: 2
Flags: W
LayerCount: 2
Fore
SplineSet
223 401 m 1,0,1
 301 432 301 432 380 424 c 0,2,3
 390 423 390 423 403 422 c 1,4,-1
 523 321 l 1,5,6
 499 177 499 177 402 84 c 0,7,8
 306 -8 306 -8 156 -28 c 1,9,-1
 -5 102 l 1,10,11
 1 215 1 215 24.5 307 c 128,-1,12
 48 399 48 399 98 471 c 0,13,14
 201 617 201 617 429 688 c 1,15,-1
 543 593 l 1,16,17
 418 559 418 559 342 511.5 c 128,-1,18
 266 464 266 464 223 401 c 1,0,1
139 100 m 1,19,20
 220 108 220 108 282 160 c 1,21,22
 348 217 348 217 373 310 c 1,23,24
 364 311 364 311 356 311 c 2,25,-1
 338 311 l 2,26,27
 254 311 254 311 167 282 c 1,28,29
 145 206 145 206 139 100 c 1,19,20
EndSplineSet
EndChar

StartChar: seven
Encoding: 55 55 48
Width: 554
GlyphClass: 2
Flags: W
LayerCount: 2
Fore
SplineSet
-9 87 m 1,0,1
 120 263 120 263 279 399 c 0,2,3
 333 445 333 445 395 495 c 1,4,5
 244 523 244 523 85 529 c 1,6,-1
 149 665 l 1,7,8
 317 659 317 659 431 634 c 0,9,10
 476 625 476 625 523 613 c 1,11,-1
 582 489 l 1,12,13
 366 317 366 317 213 121 c 0,14,15
 160 53 160 53 102 -29 c 1,16,-1
 -9 87 l 1,0,1
EndSplineSet
EndChar

StartChar: eight
Encoding: 56 56 49
Width: 620
GlyphClass: 2
Flags: W
LayerCount: 2
Fore
SplineSet
181 387 m 1,0,1
 153 452 153 452 153 494.5 c 128,-1,2
 153 537 153 537 169 570 c 128,-1,3
 185 603 185 603 214 626 c 0,4,5
 271 670 271 670 369 678 c 1,6,-1
 544 579 l 1,7,8
 561 547 561 547 574.5 513.5 c 128,-1,9
 588 480 588 480 588 445 c 0,10,11
 588 350 588 350 475 314 c 0,12,13
 442 304 442 304 407 300 c 1,14,15
 464 222 464 222 464 148 c 0,16,17
 464 67 464 67 387 10 c 0,18,19
 314 -43 314 -43 210 -47 c 1,20,-1
 26 56 l 1,21,22
 6 88 6 88 -10.5 124.5 c 128,-1,23
 -27 161 -27 161 -27 205 c 128,-1,24
 -27 249 -27 249 -10 281.5 c 128,-1,25
 7 314 7 314 36 336 c 0,26,27
 87 376 87 376 181 387 c 1,0,1
457 483 m 0,28,29
 457 524 457 524 422 575 c 1,30,31
 362 573 362 573 329 548.5 c 128,-1,32
 296 524 296 524 296 482 c 0,33,34
 296 450 296 450 335 390 c 1,35,36
 457 407 457 407 457 483 c 0,28,29
145 266 m 128,-1,38
 108 244 108 244 108 195 c 128,-1,39
 108 146 108 146 161 77 c 1,40,41
 217 79 217 79 251 97 c 128,-1,42
 285 115 285 115 300 133.5 c 128,-1,43
 315 152 315 152 315 179 c 256,44,45
 315 206 315 206 294.5 234.5 c 128,-1,46
 274 263 274 263 244 294 c 1,47,37
 182 288 182 288 145 266 c 128,-1,38
EndSplineSet
EndChar

StartChar: nine
Encoding: 57 57 50
Width: 608
GlyphClass: 2
Flags: W
LayerCount: 2
Fore
SplineSet
11 58 m 1,0,1
 230 117 230 117 317 240 c 1,2,3
 240 207 240 207 139 218 c 1,4,-1
 19 320 l 1,5,6
 43 466 43 466 140 558 c 0,7,8
 236 649 236 649 388 669 c 1,9,-1
 547 547 l 1,10,11
 547 221 547 221 326 58 c 0,12,13
 246 -1 246 -1 127 -38 c 1,14,-1
 11 58 l 1,0,1
169 338 m 1,15,16
 178 337 178 337 186 337 c 2,17,-1
 204 337 l 2,18,19
 300 337 300 337 375 362 c 1,20,21
 395 432 395 432 404 549 c 1,22,23
 282 536 282 536 206 422 c 0,24,25
 182 385 182 385 169 338 c 1,15,16
EndSplineSet
EndChar

StartChar: less
Encoding: 60 60 53
Width: 609
GlyphClass: 2
Flags: W
LayerCount: 2
Fore
SplineSet
277 40 m 1,0,1
 178 166 178 166 111 294 c 1,2,-1
 153 389 l 1,3,4
 248 436 248 436 438 482 c 1,5,-1
 478 381 l 1,6,7
 323 335 323 335 251 298 c 1,8,9
 264 272 264 272 280 245 c 128,-1,10
 296 218 296 218 312 191 c 0,11,12
 350 127 350 127 373 94 c 1,13,-1
 277 40 l 1,0,1
EndSplineSet
EndChar

StartChar: question
Encoding: 63 63 56
Width: 590
GlyphClass: 2
Flags: W
LayerCount: 2
Fore
SplineSet
116 643 m 1,0,1
 330 740 330 740 497 701 c 1,2,-1
 587 562 l 1,3,4
 575 448 575 448 500 372 c 0,5,6
 467 339 467 339 428.5 313 c 128,-1,7
 390 287 390 287 353 261.5 c 128,-1,8
 316 236 316 236 284.5 206 c 128,-1,9
 253 176 253 176 235 135 c 1,10,-1
 117 222 l 1,11,12
 146 289 146 289 226 348 c 0,13,14
 260 372 260 372 295 394 c 128,-1,15
 330 416 330 416 360 440 c 0,16,17
 427 496 427 496 439 571 c 1,18,19
 331 586 331 586 156 517 c 1,20,-1
 116 643 l 1,0,1
36 76 m 128,-1,22
 63 103 63 103 102 103 c 256,23,24
 141 103 141 103 168 76 c 128,-1,25
 195 49 195 49 195 10 c 0,26,27
 195 -50 195 -50 138 -76 c 1,28,29
 82 -100 82 -100 36 -56 c 0,30,31
 9 -30 9 -30 9 9.5 c 128,-1,21
 9 49 9 49 36 76 c 128,-1,22
EndSplineSet
EndChar

StartChar: at
Encoding: 64 64 57
Width: 1138
GlyphClass: 2
Flags: W
LayerCount: 2
Fore
SplineSet
949 -28 m 1,0,1
 699 -230 699 -230 435 -230 c 0,2,3
 349 -230 349 -230 278 -202 c 128,-1,4
 207 -174 207 -174 156.5 -126 c 128,-1,5
 106 -78 106 -78 78 -13 c 128,-1,6
 50 52 50 52 50 132 c 128,-1,7
 50 212 50 212 72.5 287.5 c 128,-1,8
 95 363 95 363 135 426.5 c 128,-1,9
 175 490 175 490 229 541 c 128,-1,10
 283 592 283 592 346 627 c 0,11,12
 479 700 479 700 620 700 c 0,13,14
 701 700 701 700 770.5 671 c 128,-1,15
 840 642 840 642 891 591 c 128,-1,16
 942 540 942 540 972 470 c 0,17,18
 1027 339 1027 339 979 180 c 1,19,20
 869 110 869 110 696 40 c 0,21,22
 649 22 649 22 616 11 c 1,23,-1
 550 85 l 1,24,25
 481 35 481 35 394 8 c 1,26,-1
 288 106 l 1,27,28
 288 251 288 251 370 356 c 1,29,30
 458 472 458 472 607 485 c 1,31,-1
 663 399 l 1,32,33
 671 410 671 410 707 454 c 1,34,-1
 791 387 l 1,35,36
 737 317 737 317 678 209 c 0,37,38
 660 176 660 176 647 146 c 1,39,40
 709 161 709 161 778.5 186.5 c 128,-1,41
 848 212 848 212 864 221 c 1,42,43
 882 275 882 275 882 333 c 128,-1,44
 882 391 882 391 860.5 437 c 128,-1,45
 839 483 839 483 802 516 c 1,46,47
 724 589 724 589 615 589 c 0,48,49
 537 589 537 589 458 555.5 c 128,-1,50
 379 522 379 522 316 462.5 c 128,-1,51
 253 403 253 403 213.5 321.5 c 128,-1,52
 174 240 174 240 174 144 c 0,53,54
 174 28 174 28 247 -45 c 0,55,56
 322 -120 322 -120 441 -120 c 128,-1,57
 560 -120 560 -120 669.5 -75.5 c 128,-1,58
 779 -31 779 -31 897 57 c 1,59,-1
 949 -28 l 1,0,1
414 131 m 1,60,61
 545 167 545 167 586 280 c 0,62,63
 599 317 599 317 607 364 c 1,64,65
 513 345 513 345 462 280 c 1,66,67
 416 219 416 219 414 131 c 1,60,61
EndSplineSet
EndChar

StartChar: A
Encoding: 65 65 58
Width: 686
GlyphClass: 2
Flags: W
LayerCount: 2
Fore
SplineSet
202 256 m 1,0,1
 91 114 91 114 27 -29 c 1,2,-1
 -82 72 l 1,3,4
 -17 194 -17 194 89 327 c 1,5,-1
 29 361 l 1,6,-1
 115 469 l 1,7,-1
 180 433 l 1,8,9
 302 563 302 563 416 649 c 1,10,-1
 490 582 l 1,11,12
 505 644 505 644 514 704 c 1,13,-1
 639 596 l 1,14,15
 580 296 580 296 400 -47 c 1,16,-1
 286 57 l 1,17,18
 318 115 318 115 332 142 c 1,19,20
 277 203 277 203 202 256 c 1,0,1
289 358 m 1,21,22
 343 317 343 317 388 269 c 1,23,24
 449 421 449 421 478 536 c 1,25,26
 390 467 390 467 289 358 c 1,21,22
EndSplineSet
EndChar

StartChar: B
Encoding: 66 66 59
Width: 681
GlyphClass: 2
Flags: W
LayerCount: 2
Fore
SplineSet
411 278 m 1,0,1
 458 247 458 247 506 207 c 1,2,-1
 486 81 l 1,3,4
 350 -6 350 -6 150 -27 c 0,5,6
 93 -33 93 -33 42 -33 c 1,7,-1
 -71 69 l 1,8,9
 57 352 57 352 232 564 c 1,10,11
 155 575 155 575 110 575 c 1,12,-1
 153 694 l 1,13,14
 273 689 273 689 384 670.5 c 128,-1,15
 495 652 495 652 601 606 c 1,16,-1
 677 437 l 1,17,18
 570 325 570 325 411 278 c 1,0,1
246 347 m 1,19,20
 346 371 346 371 396 395 c 0,21,22
 476 432 476 432 529 479 c 1,23,24
 424 532 424 532 259 559 c 1,25,-1
 348 487 l 1,26,27
 274 391 274 391 246 347 c 1,19,20
104 103 m 1,28,29
 264 109 264 109 369 166 c 1,30,31
 334 206 334 206 244 248 c 0,32,33
 219 259 219 259 196 269 c 1,34,35
 143 183 143 183 104 103 c 1,28,29
EndSplineSet
EndChar

StartChar: C
Encoding: 67 67 60
Width: 608
GlyphClass: 2
Flags: W
LayerCount: 2
Fore
SplineSet
127 124 m 1,0,1
 285 135 285 135 415 199 c 1,2,-1
 454 85 l 1,3,4
 290 -16 290 -16 75 -32 c 1,5,-1
 -52 86 l 1,6,7
 -7 282 -7 282 108 441 c 1,8,9
 239 620 239 620 426 699 c 1,10,-1
 616 562 l 1,11,12
 590 477 590 477 522 365 c 0,13,14
 503 334 503 334 486 310 c 1,15,-1
 370 374 l 1,16,17
 438 491 438 491 461 571 c 1,18,19
 336 509 336 509 240 381 c 1,20,21
 148 256 148 256 127 124 c 1,0,1
EndSplineSet
EndChar

StartChar: D
Encoding: 68 68 61
Width: 692
GlyphClass: 2
Flags: W
LayerCount: 2
Fore
SplineSet
-57 92 m 1,0,1
 6 234 6 234 54 316 c 0,2,3
 134 451 134 451 227 564 c 1,4,5
 150 575 150 575 102 575 c 1,6,-1
 145 694 l 1,7,8
 265 689 265 689 376 670.5 c 128,-1,9
 487 652 487 652 593 606 c 1,10,-1
 652 472 l 1,11,12
 604 269 604 269 439 136 c 0,13,14
 287 14 287 14 71 -26 c 1,15,-1
 -57 92 l 1,0,1
119 123 m 1,16,17
 255 162 255 162 360 257 c 0,18,19
 471 357 471 357 506 490 c 1,20,21
 399 535 399 535 256 559 c 1,22,-1
 344 487 l 1,23,24
 204 310 204 310 119 123 c 1,16,17
EndSplineSet
EndChar

StartChar: E
Encoding: 69 69 62
Width: 607
GlyphClass: 2
Flags: W
LayerCount: 2
Fore
SplineSet
116 133 m 1,0,1
 252 103 252 103 421 97 c 1,2,-1
 380 -32 l 1,3,4
 229 -29 229 -29 60 8 c 1,5,-1
 -54 112 l 1,6,7
 16 273 16 273 154 471 c 0,8,9
 193 528 193 528 230 573 c 1,10,11
 160 584 160 584 115 584 c 1,12,-1
 162 708 l 1,13,14
 443 699 443 699 661 606 c 1,15,-1
 604 460 l 1,16,17
 453 532 453 532 261 568 c 1,18,-1
 347 497 l 1,19,20
 299 439 299 439 260 379 c 1,21,22
 359 357 359 357 457 348 c 1,23,-1
 412 221 l 1,24,25
 259 248 259 248 188 267 c 1,26,27
 150 204 150 204 116 133 c 1,0,1
EndSplineSet
EndChar

StartChar: F
Encoding: 70 70 63
Width: 584
GlyphClass: 2
Flags: W
LayerCount: 2
Fore
SplineSet
-77 76 m 1,0,1
 2 250 2 250 147 459 c 0,2,3
 190 521 190 521 227 566 c 1,4,5
 157 577 157 577 112 577 c 1,6,-1
 158 701 l 1,7,8
 425 692 425 692 643 605 c 1,9,-1
 586 460 l 1,10,11
 441 524 441 524 258 561 c 1,12,-1
 344 490 l 1,13,14
 297 429 297 429 243 351 c 1,15,16
 304 339 304 339 441 296 c 1,17,-1
 392 174 l 1,18,-1
 270 214 l 1,19,20
 224 228 224 228 173 241 c 1,21,22
 87 96 87 96 37 -29 c 1,23,-1
 -77 76 l 1,0,1
EndSplineSet
EndChar

StartChar: G
Encoding: 71 71 64
Width: 667
GlyphClass: 2
Flags: W
LayerCount: 2
Fore
SplineSet
-47 97 m 1,0,1
 -4 281 -4 281 132 444 c 0,2,3
 274 614 274 614 467 695 c 1,4,-1
 649 562 l 1,5,6
 628 489 628 489 578 404 c 1,7,-1
 455 472 l 1,8,9
 472 506 472 506 489 562 c 1,10,11
 281 455 281 455 182 269 c 0,12,13
 149 207 149 207 133 140 c 1,14,15
 255 158 255 158 341 184 c 1,16,17
 363 228 363 228 391 292 c 1,18,-1
 525 223 l 1,19,20
 419 15 419 15 261 -187 c 1,21,-1
 154 -90 l 1,22,23
 227 3 227 3 254 43 c 1,24,25
 157 11 157 11 58 -1 c 1,26,-1
 -47 97 l 1,0,1
EndSplineSet
EndChar

StartChar: H
Encoding: 72 72 65
Width: 730
GlyphClass: 2
Flags: W
LayerCount: 2
Fore
SplineSet
341 180 m 1,0,1
 267 228 267 228 206 261 c 1,2,3
 121 99 121 99 67 -29 c 1,4,-1
 -50 78 l 1,5,6
 0 189 0 189 79 326 c 1,7,-1
 0 364 l 1,8,-1
 68 481 l 1,9,-1
 148 443 l 1,10,11
 240 593 240 593 313 686 c 1,12,-1
 421 589 l 1,13,14
 380 535 380 535 277 378 c 1,15,16
 341 342 341 342 407 301 c 1,17,18
 553 552 553 552 645 668 c 1,19,-1
 753 571 l 1,20,21
 635 412 635 412 526 220 c 1,22,-1
 611 157 l 1,23,-1
 533 43 l 1,24,-1
 462 97 l 1,25,26
 419 12 419 12 393 -58 c 1,27,-1
 277 49 l 1,28,29
 301 103 301 103 341 180 c 1,0,1
EndSplineSet
EndChar

StartChar: I
Encoding: 73 73 66
Width: 360
GlyphClass: 2
Flags: W
LayerCount: 2
Fore
SplineSet
-63 77 m 1,0,1
 84 408 84 408 295 689 c 1,2,-1
 397 585 l 1,3,4
 295 444 295 444 230 327 c 0,5,6
 115 119 115 119 52 -29 c 1,7,-1
 -63 77 l 1,0,1
EndSplineSet
EndChar

StartChar: J
Encoding: 74 74 67
Width: 494
GlyphClass: 2
Flags: W
LayerCount: 2
Fore
SplineSet
-23 -29 m 1,0,1
 -66 101 -66 101 -78 219 c 1,2,-1
 54 245 l 1,3,4
 66 169 66 169 88 92 c 1,5,6
 198 339 198 339 330 548 c 0,7,8
 377 623 377 623 427 689 c 1,9,-1
 531 585 l 1,10,11
 411 419 411 419 274 146 c 0,12,13
 233 65 233 65 203 -2 c 1,14,-1
 -23 -29 l 1,0,1
EndSplineSet
EndChar

StartChar: K
Encoding: 75 75 68
Width: 674
GlyphClass: 2
Flags: W
LayerCount: 2
Fore
SplineSet
346 251 m 1,0,1
 398 160 398 160 498 28 c 1,2,-1
 364 -58 l 1,3,4
 269 79 269 79 186 256 c 1,5,6
 124 152 124 152 33 -29 c 1,7,-1
 -77 73 l 1,8,9
 76 364 76 364 210 557 c 0,10,11
 256 623 256 623 306 689 c 1,12,-1
 409 583 l 1,13,14
 315 466 315 466 234 334 c 1,15,16
 465 475 465 475 625 625 c 1,17,-1
 718 517 l 1,18,19
 625 428 625 428 558 381 c 0,20,21
 461 313 461 313 346 251 c 1,0,1
EndSplineSet
EndChar

StartChar: L
Encoding: 76 76 69
Width: 510
GlyphClass: 2
Flags: W
LayerCount: 2
Fore
SplineSet
125 140 m 1,0,1
 229 118 229 118 391 102 c 1,2,-1
 348 -37 l 1,3,4
 211 -25 211 -25 151.5 -14 c 128,-1,5
 92 -3 92 -3 58 4 c 1,6,-1
 -62 113 l 1,7,8
 60 367 60 367 297 689 c 1,9,-1
 400 585 l 1,10,11
 269 405 269 405 125 140 c 1,0,1
EndSplineSet
EndChar

StartChar: M
Encoding: 77 77 70
Width: 891
GlyphClass: 2
Flags: W
LayerCount: 2
Fore
SplineSet
669 412 m 1,0,1
 497 186 497 186 313 -34 c 1,2,-1
 207 58 l 1,3,4
 252 329 252 329 295 483 c 1,5,6
 187 311 187 311 102 138 c 0,7,8
 68 70 68 70 29 -14 c 1,9,-1
 -78 86 l 1,10,11
 15 274 15 274 78 377 c 0,12,13
 188 555 188 555 309 713 c 1,14,-1
 456 584 l 1,15,16
 397 394 397 394 368 217 c 1,17,18
 527 410 527 410 713 678 c 1,19,-1
 856 555 l 1,20,21
 796 361 796 361 767.5 286.5 c 128,-1,22
 739 212 739 212 719 162 c 0,23,24
 683 72 683 72 622 -66 c 1,25,-1
 503 31 l 1,26,27
 586 199 586 199 620 285 c 128,-1,28
 654 371 654 371 669 412 c 1,0,1
EndSplineSet
EndChar

StartChar: N
Encoding: 78 78 71
Width: 727
GlyphClass: 2
Flags: W
LayerCount: 2
Fore
SplineSet
-70 77 m 1,0,1
 -13 214 -13 214 95 402 c 0,2,3
 192 572 192 572 293 704 c 1,4,-1
 392 607 l 1,5,6
 394 440 394 440 410 256 c 1,7,8
 517 481 517 481 651 665 c 1,9,-1
 753 571 l 1,10,11
 589 342 589 342 440 -10 c 1,12,-1
 307 -37 l 1,13,14
 275 199 275 199 265 413 c 1,15,16
 131 188 131 188 46 -29 c 1,17,-1
 -70 77 l 1,0,1
EndSplineSet
EndChar

StartChar: O
Encoding: 79 79 72
Width: 686
GlyphClass: 2
Flags: W
LayerCount: 2
Fore
SplineSet
607 386 m 1,0,1
 501 481 501 481 409 537 c 1,2,3
 307 484 307 484 228 357 c 0,4,5
 146 226 146 226 136 91 c 1,6,7
 293 134 293 134 404 304 c 0,8,9
 441 362 441 362 469 436 c 1,10,-1
 607 386 l 1,11,12
 540 198 540 198 432 95 c 0,13,14
 315 -17 315 -17 130 -52 c 1,15,-1
 -18 84 l 1,16,17
 11 392 11 392 235 580 c 0,18,19
 313 646 313 646 418 695 c 1,20,21
 551 627 551 627 652 521 c 1,22,-1
 607 386 l 1,0,1
EndSplineSet
EndChar

StartChar: P
Encoding: 80 80 73
Width: 674
GlyphClass: 2
Flags: W
LayerCount: 2
Fore
SplineSet
-66 75 m 1,0,1
 1 223 1 223 54 310 c 0,2,3
 140 453 140 453 233 563 c 1,4,5
 164 575 164 575 109 575 c 1,6,-1
 152 694 l 1,7,8
 340 688 340 688 479 645 c 0,9,10
 531 629 531 629 584 606 c 1,11,-1
 662 431 l 1,12,13
 593 333 593 333 485.5 261.5 c 128,-1,14
 378 190 378 190 253 156 c 1,15,-1
 187 250 l 1,16,17
 109 119 109 119 48 -30 c 1,18,-1
 -66 75 l 1,0,1
202 275 m 1,19,20
 413 348 413 348 519 476 c 1,21,22
 424 526 424 526 264 558 c 1,23,-1
 350 487 l 1,24,25
 270 386 270 386 202 275 c 1,19,20
EndSplineSet
EndChar

StartChar: Q
Encoding: 81 81 74
Width: 666
GlyphClass: 2
Flags: W
LayerCount: 2
Fore
SplineSet
202 10 m 1,0,1
 287 -31 287 -31 411 -78 c 1,2,-1
 347 -203 l 1,3,4
 185 -142 185 -142 67 -65 c 0,5,6
 26 -38 26 -38 -20 -4 c 1,7,-1
 32 94 l 1,8,9
 67 101 67 101 106 114 c 1,10,-1
 7 182 l 1,11,12
 21 362 21 362 136 504 c 0,13,14
 250 646 250 646 426 697 c 1,15,-1
 490 596 l 1,16,17
 496 628 496 628 501 684 c 1,18,-1
 633 583 l 1,19,20
 607 366 607 366 503 219.5 c 128,-1,21
 399 73 399 73 202 10 c 1,0,1
131 123 m 1,22,23
 424 234 424 234 487 579 c 1,24,25
 338 529 338 529 246.5 411 c 128,-1,26
 155 293 155 293 131 123 c 1,22,23
EndSplineSet
EndChar

StartChar: R
Encoding: 82 82 75
Width: 678
GlyphClass: 2
Flags: W
LayerCount: 2
Fore
SplineSet
338 213 m 1,0,1
 398 117 398 117 482 28 c 1,2,-1
 349 -58 l 1,3,4
 257 61 257 61 172 226 c 1,5,6
 103 107 103 107 47 -29 c 1,7,-1
 -66 75 l 1,8,9
 1 223 1 223 54 310 c 0,10,11
 140 453 140 453 233 563 c 1,12,13
 164 575 164 575 108 575 c 1,14,-1
 151 694 l 1,15,16
 339 688 339 688 478 645 c 0,17,18
 530 629 530 629 583 606 c 1,19,-1
 661 434 l 1,20,21
 559 299 559 299 338 213 c 1,0,1
212 293 m 1,22,23
 348 345 348 345 454 424 c 0,24,25
 490 450 490 450 516 477 c 1,26,27
 421 527 421 527 264 557 c 1,28,-1
 350 487 l 1,29,30
 270 385 270 385 212 293 c 1,22,23
EndSplineSet
EndChar

StartChar: S
Encoding: 83 83 76
Width: 612
GlyphClass: 2
Flags: W
LayerCount: 2
Fore
SplineSet
468 587 m 1,0,1
 361 530 361 530 274 435 c 1,2,3
 285 400 285 400 306 360.5 c 128,-1,4
 327 321 327 321 350 276 c 0,5,6
 411 162 411 162 437 81 c 1,7,-1
 353 -53 l 1,8,9
 166 -4 166 -4 21 84 c 0,10,11
 -24 112 -24 112 -68 142 c 1,12,-1
 -1 264 l 1,13,14
 151 159 151 159 277 110 c 1,15,16
 253 169 253 169 205 252.5 c 128,-1,17
 157 336 157 336 135.5 378.5 c 128,-1,18
 114 421 114 421 102 463 c 1,19,20
 164 540 164 540 260 615 c 0,21,22
 348 684 348 684 428 722 c 1,23,-1
 621 593 l 1,24,25
 602 508 602 508 534 382 c 0,26,27
 517 350 517 350 504 331 c 1,28,-1
 384 400 l 1,29,30
 424 464 424 464 468 587 c 1,0,1
EndSplineSet
EndChar

StartChar: T
Encoding: 84 84 77
Width: 576
GlyphClass: 2
Flags: W
LayerCount: 2
Fore
SplineSet
144.5 345.5 m 128,-1,1
 217 461 217 461 282 551 c 1,2,3
 162 589 162 589 71 612 c 1,4,-1
 145 727 l 1,5,6
 365 685 365 685 651 574 c 1,7,-1
 582 436 l 1,8,9
 426 501 426 501 312 541 c 1,10,-1
 397 465 l 1,11,12
 282 309 282 309 192 114 c 0,13,14
 161 49 161 49 128 -29 c 1,15,-1
 11 78 l 1,16,0
 72 230 72 230 144.5 345.5 c 128,-1,1
EndSplineSet
EndChar

StartChar: U
Encoding: 85 85 78
Width: 680
GlyphClass: 2
Flags: W
LayerCount: 2
Fore
SplineSet
273 57 m 1,0,1
 200 19 200 19 76 -25 c 1,2,-1
 -50 96 l 1,3,4
 74 423 74 423 283 695 c 1,5,-1
 391 588 l 1,6,7
 283 457 283 457 180 256 c 0,8,9
 150 196 150 196 126 140 c 1,10,11
 246 167 246 167 328 200 c 1,12,-1
 328 198 l 1,13,14
 487 526 487 526 597 660 c 1,15,-1
 707 553 l 1,16,17
 551 365 551 365 386 -50 c 1,18,-1
 273 57 l 1,0,1
EndSplineSet
EndChar

StartChar: V
Encoding: 86 86 79
Width: 655
GlyphClass: 2
Flags: W
LayerCount: 2
Fore
SplineSet
173 131 m 1,0,1
 400 329 400 329 580 660 c 1,2,-1
 688 553 l 1,3,4
 542 279 542 279 322 74 c 0,5,6
 253 9 253 9 184 -38 c 1,7,-1
 79 59 l 1,8,9
 118 85 118 85 140 104 c 1,10,-1
 38 193 l 1,11,12
 99 389 99 389 202 544 c 1,13,14
 168 528 168 528 89 485 c 1,15,-1
 40 600 l 1,16,17
 140 657 140 657 188 676 c 128,-1,18
 236 695 236 695 272 707 c 1,19,-1
 383 589 l 1,20,21
 231 352 231 352 173 131 c 1,0,1
EndSplineSet
EndChar

StartChar: W
Encoding: 87 87 80
Width: 974
GlyphClass: 2
Flags: W
LayerCount: 2
Fore
SplineSet
500 115 m 1,0,1
 715 291 715 291 861 618 c 1,2,-1
 970 518 l 1,3,4
 895 345 895 345 769 195 c 256,5,6
 643 45 643 45 496 -47 c 1,7,-1
 364 70 l 1,8,9
 373 103 373 103 392 166 c 1,10,11
 314 76 314 76 240 15 c 0,12,13
 214 -7 214 -7 186 -29 c 1,14,-1
 36 106 l 1,15,16
 83 340 83 340 202 533 c 1,17,18
 153 510 153 510 92 476 c 1,19,-1
 43 591 l 1,20,21
 145 649 145 649 193.5 669.5 c 128,-1,22
 242 690 242 690 278 702 c 1,23,-1
 390 590 l 1,24,25
 247 367 247 367 187 141 c 1,26,27
 397 317 397 317 584 660 c 1,28,-1
 688 564 l 1,29,-1
 670 531 l 2,30,31
 597 396 597 396 567 320 c 0,32,33
 527 215 527 215 500 115 c 1,0,1
EndSplineSet
EndChar

StartChar: X
Encoding: 88 88 81
Width: 604
GlyphClass: 2
Flags: W
LayerCount: 2
Fore
SplineSet
350 302 m 1,0,1
 382 163 382 163 448 -1 c 1,2,-1
 307 -38 l 1,3,4
 254 103 254 103 227 224 c 1,5,6
 167 178 167 178 114 123 c 128,-1,7
 61 68 61 68 3 3 c 1,8,-1
 -90 112 l 1,9,10
 61 274 61 274 200 367 c 1,11,12
 191 449 191 449 191 534 c 1,13,14
 143 513 143 513 104 492 c 1,15,-1
 56 602 l 1,16,17
 146 658 146 658 249 694 c 1,18,-1
 336 598 l 1,19,20
 328 533 328 533 330 454 c 1,21,22
 445 555 445 555 578 640 c 1,23,-1
 668 520 l 1,24,25
 502 428 502 428 350 302 c 1,0,1
EndSplineSet
EndChar

StartChar: Y
Encoding: 89 89 82
Width: 566
GlyphClass: 2
Flags: W
LayerCount: 2
Fore
SplineSet
245 353 m 1,0,1
 403 491 403 491 523 663 c 1,2,-1
 635 556 l 1,3,4
 449 320 449 320 245 196 c 1,5,6
 190 111 190 111 137 -41 c 1,7,-1
 13 66 l 1,8,9
 55 171 55 171 73.5 204.5 c 128,-1,10
 92 238 92 238 112 270 c 1,11,12
 89 470 89 470 149 731 c 1,13,-1
 283 608 l 1,14,15
 249 475 249 475 245 353 c 1,0,1
EndSplineSet
EndChar

StartChar: Z
Encoding: 90 90 83
Width: 631
GlyphClass: 2
Flags: W
LayerCount: 2
Fore
SplineSet
167 134 m 1,0,1
 271 104 271 104 430 79 c 1,2,-1
 379 -52 l 1,3,4
 101 -6 101 -6 -65 79 c 1,5,-1
 -26 193 l 1,6,7
 97 244 97 244 241 336 c 0,8,9
 363 413 363 413 463 499 c 1,10,11
 369 535 369 535 264 560 c 1,12,13
 278 480 278 480 283 455 c 1,14,-1
 151 439 l 1,15,16
 127 523 127 523 119 611 c 1,17,-1
 248 701 l 1,18,19
 356 677 356 677 425 651 c 0,20,21
 526 614 526 614 642 559 c 1,22,-1
 601 437 l 1,23,24
 428 269 428 269 167 134 c 1,0,1
EndSplineSet
EndChar

StartChar: bracketleft
Encoding: 91 91 84
Width: 513
GlyphClass: 2
Flags: W
LayerCount: 2
Fore
SplineSet
123 -26 m 1,0,1
 221 -63 221 -63 287 -81 c 1,2,-1
 259 -170 l 1,3,4
 162 -156 162 -156 81 -122 c 1,5,-1
 -8 -35 l 1,6,7
 99 206 99 206 173 340 c 0,8,9
 294 558 294 558 436 771 c 1,10,11
 553 732 553 732 584.5 718.5 c 128,-1,12
 616 705 616 705 646 692 c 1,13,-1
 614 607 l 1,14,15
 574 623 574 623 496 647 c 1,16,17
 371 446 371 446 314 344 c 0,18,19
 193 129 193 129 123 -26 c 1,0,1
EndSplineSet
EndChar

StartChar: backslash
Encoding: 92 92 85
Width: 470
GlyphClass: 2
Flags: W
LayerCount: 2
Fore
SplineSet
309 -44 m 1,0,1
 195 320 195 320 100 547 c 0,2,3
 76 604 76 604 46 671 c 1,4,-1
 129 715 l 1,5,6
 269 383 269 383 348 139 c 0,7,8
 368 77 368 77 391 4 c 1,9,-1
 309 -44 l 1,0,1
EndSplineSet
EndChar

StartChar: asciicircum
Encoding: 94 94 87
Width: 654
GlyphClass: 2
Flags: W
LayerCount: 2
Fore
SplineSet
334 383 m 1,0,1
 220 306 220 306 102 205 c 1,2,-1
 43 302 l 1,3,4
 147 409 147 409 270 498 c 0,5,6
 309 526 309 526 347 549 c 1,7,-1
 445 504 l 1,8,9
 485 284 485 284 493 115 c 1,10,-1
 379 91 l 1,11,12
 364 220 364 220 334 383 c 1,0,1
EndSplineSet
EndChar

StartChar: underscore
Encoding: 95 95 88
Width: 679
GlyphClass: 2
Flags: W
LayerCount: 2
Fore
SplineSet
626 -106 m 1,0,-1
 626 -200 l 1,1,-1
 -91 -200 l 1,2,-1
 -91 -106 l 1,3,-1
 626 -106 l 1,0,-1
EndSplineSet
EndChar

StartChar: grave
Encoding: 96 96 89
Width: 355
GlyphClass: 2
Flags: W
LayerCount: 2
Fore
SplineSet
226 544 m 1,0,1
 168 679 168 679 88 797 c 1,2,-1
 201 859 l 1,3,4
 267 739 267 739 324 587 c 1,5,-1
 226 544 l 1,0,1
EndSplineSet
EndChar

StartChar: a
Encoding: 97 97 90
Width: 616
GlyphClass: 2
Flags: W
LayerCount: 2
Fore
SplineSet
272 63 m 1,0,1
 193 1 193 1 90 -27 c 1,2,-1
 -34 88 l 1,3,4
 -34 167 -34 167 -10 243 c 128,-1,5
 14 319 14 319 61 380 c 128,-1,6
 108 441 108 441 177.5 481.5 c 128,-1,7
 247 522 247 522 338 530 c 1,8,-1
 404 429 l 1,9,10
 416 448 416 448 455 495 c 1,11,-1
 553 411 l 1,12,13
 454 282 454 282 389 135 c 1,14,-1
 386 133 l 1,15,16
 444 148 444 148 522 184.5 c 128,-1,17
 600 221 600 221 621 232 c 1,18,-1
 643 131 l 1,19,20
 584 88 584 88 447 20 c 0,21,22
 393 -7 393 -7 349 -23 c 1,23,-1
 272 63 l 1,0,1
106 117 m 1,24,25
 213 146 213 146 301 259 c 1,26,27
 327 316 327 316 340 401 c 1,28,29
 237 391 237 391 171 310 c 0,30,31
 106 230 106 230 106 117 c 1,24,25
EndSplineSet
EndChar

StartChar: b
Encoding: 98 98 91
Width: 608
GlyphClass: 2
Flags: W
LayerCount: 2
Fore
SplineSet
415 155 m 1,0,1
 479 172 479 172 613 232 c 1,2,-1
 634 131 l 1,3,4
 509 68 509 68 439 44 c 1,5,6
 338 11 338 11 154 -27 c 1,7,-1
 50 56 l 1,8,-1
 24 -27 l 1,9,-1
 -86 59 l 1,10,11
 -36 216 -36 216 130 516 c 0,12,13
 199 640 199 640 249 714 c 1,14,-1
 353 637 l 1,15,16
 309 573 309 573 210 408 c 1,17,18
 269 462 269 462 343 504 c 1,19,-1
 499 382 l 1,20,21
 482 263 482 263 415 155 c 1,0,1
116 108 m 1,22,23
 168 108 168 108 198 117 c 128,-1,24
 228 126 228 126 242.5 136 c 128,-1,25
 257 146 257 146 277 173 c 128,-1,26
 297 200 297 200 314 234 c 0,27,28
 352 312 352 312 359 381 c 1,29,30
 297 359 297 359 239 323.5 c 128,-1,31
 181 288 181 288 144 248 c 1,32,33
 119 182 119 182 116 108 c 1,22,23
EndSplineSet
EndChar

StartChar: c
Encoding: 99 99 92
Width: 531
GlyphClass: 2
Flags: W
LayerCount: 2
Fore
SplineSet
110 103 m 1,0,1
 355 135 355 135 536 232 c 1,2,-1
 558 131 l 1,3,4
 404 34 404 34 216 -10 c 0,5,6
 153 -24 153 -24 92 -27 c 1,7,-1
 -32 88 l 1,8,9
 -32 159 -32 159 -23 198 c 0,10,11
 16 363 16 363 168 464 c 0,12,13
 236 509 236 509 306 531 c 1,14,-1
 466 412 l 1,15,16
 461 389 461 389 438 339 c 0,17,18
 400 255 400 255 378 224 c 1,19,-1
 252 304 l 1,20,21
 306 372 306 372 320 418 c 1,22,23
 224 377 224 377 164 286 c 0,24,25
 110 204 110 204 110 103 c 1,0,1
EndSplineSet
EndChar

StartChar: d
Encoding: 100 100 93
Width: 611
GlyphClass: 2
Flags: W
LayerCount: 2
Fore
SplineSet
272 63 m 1,0,1
 193 1 193 1 90 -27 c 1,2,-1
 -34 88 l 1,3,4
 -34 167 -34 167 -10 243 c 128,-1,5
 14 319 14 319 61 380 c 128,-1,6
 108 441 108 441 177.5 481.5 c 128,-1,7
 247 522 247 522 338 530 c 1,8,-1
 393 446 l 1,9,10
 471 597 471 597 557 714 c 1,11,-1
 654 630 l 1,12,13
 555 504 555 504 449 272 c 0,14,15
 417 202 417 202 392 135 c 1,16,17
 499 167 499 167 616 232 c 1,18,-1
 638 131 l 1,19,20
 570 80 570 80 418 6 c 0,21,22
 375 -14 375 -14 349 -23 c 1,23,-1
 272 63 l 1,0,1
106 117 m 1,24,25
 213 146 213 146 301 259 c 1,26,27
 327 316 327 316 340 401 c 1,28,29
 237 391 237 391 171 310 c 0,30,31
 106 230 106 230 106 117 c 1,24,25
EndSplineSet
EndChar

StartChar: e
Encoding: 101 101 94
Width: 538
GlyphClass: 2
Flags: W
LayerCount: 2
Fore
SplineSet
201 193 m 0,0,1
 154 193 154 193 127 200 c 1,2,3
 111 161 111 161 107 103 c 1,4,5
 279 113 279 113 439 180 c 0,6,7
 493 202 493 202 543 232 c 1,8,-1
 564 131 l 1,9,10
 471 72 471 72 344 27 c 0,11,12
 209 -21 209 -21 89 -27 c 1,13,-1
 -35 88 l 1,14,15
 -35 226 -35 226 40 340 c 1,16,17
 94 419 94 419 162.5 465 c 128,-1,18
 231 511 231 511 294 531 c 1,19,-1
 463 391 l 1,20,21
 438 287 438 287 368 240 c 128,-1,22
 298 193 298 193 201 193 c 0,0,1
169 290 m 1,23,24
 227 290 227 290 270 322 c 0,25,26
 320 360 320 360 320 428 c 1,27,28
 219 373 219 373 169 290 c 1,23,24
EndSplineSet
EndChar

StartChar: f
Encoding: 102 102 95
Width: 553
GlyphClass: 2
Flags: W
LayerCount: 2
Fore
SplineSet
-115 -198 m 1,0,1
 -67 -41 -67 -41 21 147 c 1,2,3
 -29 197 -29 197 -75 251 c 1,4,-1
 -12 328 l 1,5,-1
 30 286 l 2,6,7
 48 268 48 268 65 253 c 1,8,9
 113 421 113 421 210 562 c 0,10,11
 297 689 297 689 402 762 c 1,12,-1
 571 641 l 1,13,14
 545 498 545 498 476.5 377 c 128,-1,15
 408 256 408 256 303 171 c 1,16,17
 433 193 433 193 558 232 c 1,18,-1
 579 131 l 1,19,20
 401 74 401 74 186 31 c 1,21,-1
 125 70 l 1,22,23
 52 -108 52 -108 5 -284 c 1,24,-1
 -115 -198 l 1,0,1
160 180 m 1,25,26
 262 266 262 266 346 403 c 0,27,28
 427 537 427 537 444 637 c 1,29,30
 233 426 233 426 160 180 c 1,25,26
EndSplineSet
EndChar

StartChar: g
Encoding: 103 103 96
Width: 620
GlyphClass: 2
Flags: W
LayerCount: 2
Fore
SplineSet
-125 -72 m 1,0,1
 -63 -16 -63 -16 19 25 c 1,2,-1
 -37 78 l 1,3,4
 -37 157 -37 157 -11.5 232 c 128,-1,5
 14 307 14 307 63 366.5 c 128,-1,6
 112 426 112 426 183 465 c 128,-1,7
 254 504 254 504 345 512 c 1,8,-1
 401 418 l 1,9,10
 432 463 432 463 459 495 c 1,11,-1
 556 411 l 1,12,13
 498 334 498 334 432 216 c 0,14,15
 412 180 412 180 397 146 c 1,16,17
 550 190 550 190 625 232 c 1,18,-1
 646 131 l 1,19,20
 564 70 564 70 468 22 c 0,21,22
 433 4 433 4 407 -5 c 1,23,-1
 364 43 l 1,24,25
 325 -131 325 -131 252 -228 c 0,26,27
 227 -262 227 -262 197 -294 c 1,28,29
 84 -291 84 -291 -44 -259 c 0,30,31
 -85 -249 -85 -249 -120 -237 c 1,32,-1
 -125 -72 l 1,0,1
103 103 m 1,33,34
 162 120 162 120 193 138 c 1,35,36
 251 174 251 174 293 229 c 1,37,38
 323 295 323 295 337 382 c 1,39,40
 235 372 235 372 168 294 c 0,41,42
 103 217 103 217 103 103 c 1,33,34
-24 -145 m 1,43,44
 74 -168 74 -168 128 -168 c 1,45,46
 190 -115 190 -115 230 5 c 1,47,48
 73 -58 73 -58 -24 -145 c 1,43,44
EndSplineSet
EndChar

StartChar: h
Encoding: 104 104 97
Width: 629
GlyphClass: 2
Flags: W
LayerCount: 2
Fore
SplineSet
188 349 m 1,0,1
 281 420 281 420 402 484 c 1,2,-1
 523 389 l 1,3,4
 490 247 490 247 407 133 c 1,5,6
 507 167 507 167 634 232 c 1,7,-1
 655 131 l 1,8,9
 614 104 614 104 530 62 c 0,10,11
 386 -9 386 -9 331 -27 c 1,12,-1
 207 61 l 1,13,14
 267 133 267 133 307.5 203.5 c 128,-1,15
 348 274 348 274 360 327 c 1,16,17
 229 262 229 262 187.5 235 c 128,-1,18
 146 208 146 208 113 185 c 1,19,20
 64 64 64 64 38 -27 c 1,21,-1
 -81 50 l 1,22,23
 -48 163 -48 163 64 388 c 0,24,25
 166 594 166 594 247 714 c 1,26,-1
 349 637 l 1,27,28
 265 501 265 501 188 349 c 1,0,1
EndSplineSet
EndChar

StartChar: i
Encoding: 105 105 98
Width: 332
GlyphClass: 2
Flags: W
LayerCount: 2
Fore
SplineSet
243 566 m 1,0,1
 220 590 220 590 220 624 c 256,2,3
 220 658 220 658 243.5 681.5 c 128,-1,4
 267 705 267 705 301 705 c 256,5,6
 335 705 335 705 358.5 681.5 c 128,-1,7
 382 658 382 658 382 624 c 256,8,9
 382 590 382 590 358.5 566.5 c 128,-1,10
 335 543 335 543 301 543 c 256,11,12
 267 543 267 543 243 566 c 1,0,1
92 126 m 1,13,14
 194 157 194 157 337 232 c 1,15,-1
 358 131 l 1,16,17
 261 68 261 68 124 8 c 0,18,19
 78 -12 78 -12 34 -27 c 1,20,-1
 -81 79 l 1,21,22
 -32 213 -32 213 95 413 c 0,23,24
 133 473 133 473 169 518 c 1,25,-1
 268 445 l 1,26,27
 195 345 195 345 126 204 c 0,28,29
 106 162 106 162 92 126 c 1,13,14
EndSplineSet
EndChar

StartChar: j
Encoding: 106 106 99
Width: 332
GlyphClass: 2
Flags: W
LayerCount: 2
Fore
SplineSet
243 566 m 1,0,1
 220 590 220 590 220 624 c 256,2,3
 220 658 220 658 243.5 681.5 c 128,-1,4
 267 705 267 705 301 705 c 256,5,6
 335 705 335 705 358.5 681.5 c 128,-1,7
 382 658 382 658 382 624 c 256,8,9
 382 590 382 590 358.5 566.5 c 128,-1,10
 335 543 335 543 301 543 c 256,11,12
 267 543 267 543 243 566 c 1,0,1
25 8 m 1,13,14
 -31 -113 -31 -113 -88 -294 c 1,15,-1
 -204 -221 l 1,16,17
 -81 160 -81 160 114 443 c 0,18,19
 143 485 143 485 169 518 c 1,20,-1
 268 445 l 1,21,22
 148 280 148 280 83 124 c 1,23,24
 157 146 157 146 218.5 174.5 c 128,-1,25
 280 203 280 203 337 232 c 1,26,-1
 358 131 l 1,27,28
 268 72 268 72 140 16 c 0,29,30
 96 -3 96 -3 52 -18 c 1,31,-1
 25 8 l 1,13,14
EndSplineSet
EndChar

StartChar: k
Encoding: 107 107 100
Width: 552
GlyphClass: 2
Flags: W
LayerCount: 2
Fore
SplineSet
579 131 m 1,0,1
 443 40 443 40 300 -27 c 1,2,-1
 175 61 l 1,3,4
 144 149 144 149 134 231 c 1,5,6
 83 115 83 115 33 -27 c 1,7,-1
 -86 50 l 1,8,9
 1 284 1 284 153 552 c 0,10,11
 201 636 201 636 251 714 c 1,12,-1
 354 637 l 1,13,14
 253 488 253 488 165 301 c 1,15,16
 299 426 299 426 443 529 c 1,17,-1
 545 434 l 1,18,19
 361 317 361 317 261 245 c 1,20,21
 278 197 278 197 312 128 c 1,22,23
 439 171 439 171 557 232 c 1,24,-1
 579 131 l 1,0,1
EndSplineSet
EndChar

StartChar: l
Encoding: 108 108 101
Width: 492
GlyphClass: 2
Flags: W
LayerCount: 2
Fore
SplineSet
-63 88 m 1,0,1
 -20 243 -20 243 90 439 c 0,2,3
 163 569 163 569 254 670 c 0,4,5
 300 721 300 721 349 756 c 1,6,-1
 518 637 l 1,7,8
 484 364 484 364 270 252 c 0,9,10
 201 216 201 216 116 195 c 1,11,12
 92 136 92 136 79 94 c 1,13,14
 203 111 203 111 272 132 c 0,15,16
 407 172 407 172 497 232 c 1,17,-1
 518 131 l 1,18,19
 371 29 371 29 184 -11 c 0,20,21
 122 -24 122 -24 61 -27 c 1,22,-1
 -63 88 l 1,0,1
174 320 m 1,23,24
 265 363 265 363 319 444 c 128,-1,25
 373 525 373 525 391 634 c 1,26,27
 312 563 312 563 222 408 c 0,28,29
 196 364 196 364 174 320 c 1,23,24
EndSplineSet
EndChar

StartChar: m
Encoding: 109 109 102
Width: 917
GlyphClass: 2
Flags: W
LayerCount: 2
Fore
SplineSet
501 339 m 1,0,1
 582 404 582 404 681 457 c 1,2,-1
 802 362 l 1,3,4
 770 229 770 229 696 133 c 1,5,6
 793 166 793 166 922 232 c 1,7,-1
 943 131 l 1,8,9
 902 104 902 104 818 62 c 0,10,11
 674 -9 674 -9 619 -27 c 1,12,-1
 495 61 l 1,13,14
 619 210 619 210 641 303 c 1,15,16
 536 252 536 252 443 185 c 1,17,18
 394 75 394 75 322 -27 c 1,19,-1
 207 52 l 1,20,21
 255 116 255 116 288 176 c 0,22,23
 341 274 341 274 353 330 c 1,24,25
 257 285 257 285 176 228 c 0,26,27
 148 209 148 209 117 187 c 1,28,29
 72 81 72 81 38 -27 c 1,30,-1
 -81 50 l 1,31,32
 -47 165 -47 165 25 309 c 0,33,34
 90 438 90 438 161 527 c 1,35,-1
 262 454 l 1,36,37
 226 405 226 405 198 353 c 1,38,39
 289 428 289 428 393 484 c 1,40,-1
 514 389 l 1,41,-1
 501 339 l 1,0,1
EndSplineSet
EndChar

StartChar: n
Encoding: 110 110 103
Width: 629
GlyphClass: 2
Flags: W
LayerCount: 2
Fore
SplineSet
195 348 m 1,0,1
 295 427 295 427 402 484 c 1,2,-1
 523 389 l 1,3,4
 490 247 490 247 407 133 c 1,5,6
 507 167 507 167 634 232 c 1,7,-1
 655 131 l 1,8,9
 614 104 614 104 530 62 c 0,10,11
 386 -9 386 -9 331 -27 c 1,12,-1
 207 61 l 1,13,14
 267 133 267 133 307.5 203.5 c 128,-1,15
 348 274 348 274 360 327 c 1,16,17
 232 267 232 267 116 187 c 1,18,19
 70 77 70 77 38 -27 c 1,20,-1
 -81 50 l 1,21,22
 -47 165 -47 165 25 309 c 0,23,24
 90 438 90 438 161 527 c 1,25,-1
 262 454 l 1,26,27
 227 407 227 407 195 348 c 1,0,1
EndSplineSet
EndChar

StartChar: o
Encoding: 111 111 104
Width: 586
GlyphClass: 2
Flags: W
LayerCount: 2
Fore
SplineSet
361 113 m 1,0,1
 265 2 265 2 108 -27 c 1,2,-1
 -34 92 l 1,3,4
 -34 188 -34 188 4 282 c 0,5,6
 52 400 52 400 162 473 c 0,7,8
 238 524 238 524 327 536 c 1,9,-1
 486 400 l 1,10,11
 469 292 469 292 428 212 c 1,12,13
 500 216 500 216 591 232 c 1,14,-1
 613 131 l 1,15,16
 483 77 483 77 409 58 c 1,17,-1
 361 113 l 1,0,1
100 109 m 1,18,19
 214 135 214 135 290 250 c 0,20,21
 322 299 322 299 336 344 c 128,-1,22
 350 389 350 389 351 416 c 1,23,24
 270 405 270 405 197 330 c 0,25,26
 106 237 106 237 100 109 c 1,18,19
EndSplineSet
EndChar

StartChar: p
Encoding: 112 112 105
Width: 610
GlyphClass: 2
Flags: W
LayerCount: 2
Fore
SplineSet
199 364 m 1,0,1
 265 423 265 423 374 484 c 1,2,-1
 495 389 l 1,3,4
 487 309 487 309 469 251 c 128,-1,5
 451 193 451 193 410 151 c 1,6,7
 518 186 518 186 615 232 c 1,8,-1
 636 131 l 1,9,10
 509 60 509 60 282 4 c 0,11,12
 212 -14 212 -14 141 -27 c 1,13,-1
 48 58 l 1,14,15
 -38 -136 -38 -136 -80 -284 c 1,16,-1
 -194 -207 l 1,17,18
 -71 163 -71 163 151 537 c 1,19,-1
 252 463 l 1,20,-1
 199 364 l 1,0,1
60 85 m 1,21,22
 168 102 168 102 218 122 c 1,23,24
 290 156 290 156 332 266 c 0,25,26
 346 300 346 300 351 336 c 1,27,28
 249 282 249 282 164 220 c 0,29,30
 135 199 135 199 102 174 c 1,31,-1
 60 85 l 1,21,22
EndSplineSet
EndChar

StartChar: q
Encoding: 113 113 106
Width: 616
GlyphClass: 2
Flags: W
LayerCount: 2
Fore
SplineSet
175 3 m 1,0,1
 137 -14 137 -14 90 -27 c 1,2,-1
 -34 88 l 1,3,4
 -34 167 -34 167 -10 243 c 128,-1,5
 14 319 14 319 61 380 c 128,-1,6
 108 441 108 441 177.5 481.5 c 128,-1,7
 247 522 247 522 338 530 c 1,8,-1
 404 429 l 1,9,10
 416 448 416 448 455 495 c 1,11,-1
 553 411 l 1,12,13
 454 282 454 282 389 135 c 1,14,-1
 386 133 l 1,15,16
 444 148 444 148 522 184.5 c 128,-1,17
 600 221 600 221 621 232 c 1,18,-1
 643 131 l 1,19,20
 584 88 584 88 447 20 c 0,21,22
 393 -7 393 -7 349 -23 c 1,23,-1
 318 11 l 1,24,25
 248 -150 248 -150 206 -284 c 1,26,-1
 92 -207 l 1,27,28
 130 -98 130 -98 175 3 c 1,0,1
106 117 m 1,29,30
 213 146 213 146 301 259 c 1,31,32
 327 316 327 316 340 401 c 1,33,34
 237 391 237 391 171 310 c 0,35,36
 106 230 106 230 106 117 c 1,29,30
EndSplineSet
EndChar

StartChar: r
Encoding: 114 114 107
Width: 584
GlyphClass: 2
Flags: W
LayerCount: 2
Fore
SplineSet
38 448 m 1,0,1
 86 513 86 513 158 583 c 1,2,-1
 251 511 l 1,3,4
 240 465 240 465 232 444 c 1,5,6
 361 458 361 458 418 472 c 128,-1,7
 475 486 475 486 517 497 c 1,8,-1
 545 378 l 1,9,10
 504 366 504 366 459 357 c 1,11,12
 390 248 390 248 344 126 c 1,13,14
 510 183 510 183 589 232 c 1,15,-1
 611 131 l 1,16,17
 519 71 519 71 370 8 c 0,18,19
 322 -12 322 -12 278 -27 c 1,20,-1
 172 79 l 1,21,22
 237 228 237 228 311 336 c 1,23,24
 241 330 241 330 187 328 c 1,25,26
 171 298 171 298 101 178 c 1,27,-1
 27 131 l 1,28,-1
 -68 187 l 1,29,30
 15 277 15 277 44 313 c 128,-1,31
 73 349 73 349 94 375 c 1,32,33
 65 407 65 407 38 448 c 1,0,1
EndSplineSet
EndChar

StartChar: s
Encoding: 115 115 108
Width: 581
GlyphClass: 2
Flags: W
LayerCount: 2
Fore
SplineSet
135 -35 m 1,0,1
 63 13 63 13 9 56 c 1,2,3
 -40 99 -40 99 -98 159 c 1,4,-1
 5 232 l 1,5,6
 75 159 75 159 108 134.5 c 128,-1,7
 141 110 141 110 167 93 c 1,8,9
 195 96 195 96 258 112 c 1,10,-1
 92 269 l 1,11,12
 69 293 69 293 56 312 c 1,13,14
 94 380 94 380 187 453 c 0,15,16
 274 521 274 521 353 544 c 1,17,-1
 513 415 l 1,18,19
 496 347 496 347 433 235 c 1,20,-1
 326 315 l 1,21,22
 347 346 347 346 363 382 c 128,-1,23
 379 418 379 418 382 430 c 1,24,25
 326 409 326 409 267 354 c 0,26,27
 246 334 246 334 229 313 c 1,28,29
 248 284 248 284 287 252 c 1,30,31
 353 195 353 195 398 154 c 1,32,33
 509 192 509 192 586 232 c 1,34,-1
 607 131 l 1,35,36
 527 74 527 74 382 25 c 0,37,38
 248 -20 248 -20 135 -35 c 1,0,1
EndSplineSet
EndChar

StartChar: t
Encoding: 116 116 109
Width: 447
GlyphClass: 2
Flags: W
LayerCount: 2
Fore
SplineSet
249 442 m 1,0,1
 342 452 342 452 386 464 c 1,2,-1
 409 356 l 1,3,4
 321 334 321 334 185 330 c 1,5,6
 124 210 124 210 94 112 c 1,7,8
 175 126 175 126 267 152.5 c 128,-1,9
 359 179 359 179 452 232 c 1,10,-1
 473 131 l 1,11,12
 382 68 382 68 265 23 c 0,13,14
 150 -21 150 -21 61 -27 c 1,15,-1
 -63 88 l 1,16,17
 -4 284 -4 284 138 501 c 0,18,19
 182 569 182 569 232 632 c 1,20,-1
 321 550 l 1,21,22
 282 496 282 496 249 442 c 1,0,1
EndSplineSet
EndChar

StartChar: u
Encoding: 117 117 110
Width: 600
GlyphClass: 2
Flags: W
LayerCount: 2
Fore
SplineSet
245 75 m 1,0,1
 182 15 182 15 83 -27 c 1,2,-1
 -50 88 l 1,3,4
 -36 201 -36 201 20 311 c 128,-1,5
 76 421 76 421 164 540 c 1,6,-1
 267 461 l 1,7,8
 127 272 127 272 90 117 c 1,9,10
 91 117 91 117 108.5 122.5 c 128,-1,11
 126 128 126 128 154 144 c 0,12,13
 225 184 225 184 285 259 c 1,14,15
 355 401 355 401 419 491 c 1,16,-1
 526 408 l 1,17,18
 432 270 432 270 373 135 c 1,19,-1
 369 133 l 1,20,21
 433 150 433 150 508.5 185 c 128,-1,22
 584 220 584 220 605 232 c 1,23,-1
 626 131 l 1,24,25
 564 86 564 86 431 20 c 0,26,27
 377 -7 377 -7 333 -23 c 1,28,-1
 245 75 l 1,0,1
EndSplineSet
EndChar

StartChar: v
Encoding: 118 118 111
Width: 597
GlyphClass: 2
Flags: W
LayerCount: 2
Fore
SplineSet
278 103 m 1,0,1
 181 17 181 17 86 -27 c 1,2,-1
 -47 88 l 1,3,4
 -29 192 -29 192 2 270 c 0,5,6
 51 397 51 397 127 535 c 1,7,-1
 237 460 l 1,8,9
 179 357 179 357 155 294 c 0,10,11
 119 199 119 199 103 126 c 1,12,13
 197 169 197 169 344 382 c 0,14,15
 388 445 388 445 427 513 c 1,16,-1
 542 438 l 1,17,18
 454 292 454 292 358 184 c 1,19,20
 417 187 417 187 495 205 c 128,-1,21
 573 223 573 223 602 232 c 1,22,-1
 624 131 l 1,23,24
 538 85 538 85 402 46 c 0,25,26
 365 36 365 36 339 31 c 1,27,-1
 278 103 l 1,0,1
EndSplineSet
EndChar

StartChar: w
Encoding: 119 119 112
Width: 912
GlyphClass: 2
Flags: W
LayerCount: 2
Fore
SplineSet
280 119 m 1,0,1
 192 33 192 33 84 -18 c 1,2,-1
 -41 88 l 1,3,4
 -20 195 -20 195 9 272 c 0,5,6
 56 395 56 395 133 535 c 1,7,-1
 243 460 l 1,8,9
 185 357 185 357 161 294 c 0,10,11
 125 199 125 199 109 126 c 1,12,13
 175 156 175 156 274 274 c 0,14,15
 374 392 374 392 451 526 c 1,16,-1
 561 451 l 1,17,18
 466 284 466 284 436 193 c 0,19,20
 425 158 425 158 418 126 c 1,21,22
 512 169 512 169 660 382 c 0,23,24
 703 445 703 445 742 513 c 1,25,-1
 857 438 l 1,26,27
 769 292 769 292 673 184 c 1,28,29
 732 187 732 187 810 205 c 128,-1,30
 888 223 888 223 917 232 c 1,31,-1
 939 131 l 1,32,33
 853 85 853 85 717 46 c 0,34,35
 680 36 680 36 654 31 c 0,36,37
 653 31 653 31 624.5 64 c 128,-1,38
 596 97 596 97 592 102 c 1,39,40
 503 21 503 21 401 -27 c 1,41,-1
 271 70 l 1,42,-1
 280 119 l 1,0,1
EndSplineSet
EndChar

StartChar: x
Encoding: 120 120 113
Width: 581
GlyphClass: 2
Flags: W
LayerCount: 2
Fore
SplineSet
44 -9 m 1,0,1
 -11 58 -11 58 -68 158 c 1,2,-1
 5 232 l 1,3,4
 26 195 26 195 43 173 c 1,5,6
 90 222 90 222 125 249 c 1,7,8
 90 353 90 353 76 476 c 1,9,-1
 201 534 l 1,10,11
 217 415 217 415 240 342 c 1,12,13
 290 389 290 389 339.5 432 c 128,-1,14
 389 475 389 475 452 518 c 1,15,-1
 565 441 l 1,16,17
 450 359 450 359 284 218 c 1,18,19
 301 174 301 174 322 137 c 1,20,21
 445 173 445 173 497.5 194.5 c 128,-1,22
 550 216 550 216 586 232 c 1,23,-1
 607 131 l 1,24,25
 437 37 437 37 256 -27 c 1,26,27
 206 58 206 58 175 126 c 1,28,29
 141 94 141 94 111 61.5 c 128,-1,30
 81 29 81 29 44 -9 c 1,0,1
EndSplineSet
EndChar

StartChar: y
Encoding: 121 121 114
Width: 606
GlyphClass: 2
Flags: W
LayerCount: 2
Fore
SplineSet
384 147 m 1,0,1
 546 194 546 194 611 232 c 1,2,-1
 633 131 l 1,3,4
 553 71 553 71 454 22 c 0,5,6
 419 4 419 4 393 -5 c 1,7,-1
 344 49 l 1,8,9
 316 -78 316 -78 278 -154 c 0,10,11
 242 -224 242 -224 176 -294 c 1,12,13
 66 -291 66 -291 -65 -259 c 0,14,15
 -106 -249 -106 -249 -140 -237 c 1,16,-1
 -146 -72 l 1,17,18
 -79 -13 -79 -13 3 28 c 1,19,-1
 -55 70 l 1,20,21
 -46 202 -46 202 82 410 c 0,22,23
 122 475 122 475 170 540 c 1,24,-1
 274 461 l 1,25,26
 99 215 99 215 85 99 c 1,27,28
 138 107 138 107 170 124 c 0,29,30
 234 158 234 158 272 223 c 1,31,32
 358 395 358 395 426 491 c 1,33,-1
 532 408 l 1,34,35
 434 258 434 258 384 147 c 1,0,1
-45 -145 m 1,36,37
 47 -166 47 -166 107 -168 c 1,38,39
 172 -113 172 -113 209 5 c 1,40,41
 46 -61 46 -61 -45 -145 c 1,36,37
EndSplineSet
EndChar

StartChar: z
Encoding: 122 122 115
Width: 510
GlyphClass: 2
Flags: W
LayerCount: 2
Fore
SplineSet
56 117 m 1,0,1
 317 133 317 133 515 232 c 1,2,-1
 536 131 l 1,3,4
 442 72 442 72 300 26 c 1,5,6
 149 -21 149 -21 34 -27 c 1,7,-1
 -86 84 l 1,8,9
 -68 167 -68 167 -53 201 c 1,10,11
 139 303 139 303 256 373 c 1,12,13
 182 401 182 401 22 382 c 1,14,-1
 102 517 l 1,15,16
 125 522 125 522 154 522 c 0,17,18
 214 522 214 522 263.5 498.5 c 128,-1,19
 313 475 313 475 364 440 c 1,20,-1
 419 477 l 1,21,-1
 473 373 l 1,22,23
 342 280 342 280 235 218 c 128,-1,24
 128 156 128 156 56 117 c 1,0,1
EndSplineSet
EndChar

StartChar: braceleft
Encoding: 123 123 116
Width: 490
GlyphClass: 2
Flags: W
LayerCount: 2
Fore
SplineSet
102 -166 m 1,0,1
 62 -39 62 -39 96 102 c 0,2,3
 117 190 117 190 164 277 c 0,4,5
 178 305 178 305 118 346 c 0,6,7
 100 358 100 358 77 372 c 1,8,-1
 119 454 l 1,9,10
 179 440 179 440 216 442 c 128,-1,11
 253 444 253 444 261 458 c 0,12,13
 280 492 280 492 305 537 c 128,-1,14
 330 582 330 582 365 626 c 0,15,16
 447 729 447 729 564 764 c 1,17,-1
 609 676 l 1,18,19
 492 624 492 624 408 470 c 0,20,21
 384 427 384 427 358 383 c 1,22,23
 304 356 304 356 233 361 c 1,24,25
 269 284 269 284 266 219 c 1,26,27
 178 63 178 63 199 -145 c 1,28,-1
 102 -166 l 1,0,1
EndSplineSet
EndChar

StartChar: bar
Encoding: 124 124 117
Width: 502
GlyphClass: 2
Flags: W
LayerCount: 2
Fore
SplineSet
201 731 m 1,0,-1
 270 668 l 1,1,-1
 270 -185 l 1,2,-1
 201 -117 l 1,3,-1
 201 731 l 1,0,-1
EndSplineSet
EndChar

StartChar: asciitilde
Encoding: 126 126 119
Width: 620
GlyphClass: 2
Flags: W
LayerCount: 2
Fore
SplineSet
94 414 m 1,0,1
 146 424 146 424 178.5 424 c 128,-1,2
 211 424 211 424 242.5 405.5 c 128,-1,3
 274 387 274 387 304 364.5 c 128,-1,4
 334 342 334 342 366 323.5 c 128,-1,5
 398 305 398 305 430 305 c 128,-1,6
 462 305 462 305 488 308 c 1,7,-1
 452 195 l 1,8,9
 355 172 355 172 304 204 c 1,10,11
 273 222 273 222 244 244.5 c 128,-1,12
 215 267 215 267 182.5 285.5 c 128,-1,13
 150 304 150 304 117.5 304 c 128,-1,14
 85 304 85 304 58 301 c 1,15,-1
 94 414 l 1,0,1
EndSplineSet
EndChar

StartChar: exclamdown
Encoding: 161 161 122
Width: 482
GlyphClass: 2
Flags: W
LayerCount: 2
Fore
SplineSet
439 529 m 0,0,1
 402 529 402 529 373 556 c 1,2,3
 346 583 346 583 346 622 c 128,-1,4
 346 661 346 661 373 688 c 128,-1,5
 400 715 400 715 439 715 c 256,6,7
 478 715 478 715 505 688 c 128,-1,8
 532 661 532 661 532 622 c 0,9,10
 532 562 532 562 475 536 c 0,11,12
 458 529 458 529 439 529 c 0,0,1
-1 12 m 1,13,14
 83 188 83 188 192 362 c 0,15,16
 229 421 229 421 273 489 c 1,17,-1
 382 388 l 1,18,19
 234 173 234 173 110 -86 c 1,20,-1
 -1 12 l 1,13,14
EndSplineSet
EndChar

StartChar: cent
Encoding: 162 162 123
Width: 608
GlyphClass: 2
Flags: W
LayerCount: 2
Fore
SplineSet
1 16 m 1,0,-1
 73 117 l 1,1,-1
 42 143 l 1,2,3
 23 383 23 383 216 533 c 0,4,5
 281 583 281 583 348 609 c 1,6,-1
 400 576 l 1,7,-1
 477 678 l 1,8,-1
 546 625 l 1,9,-1
 476 528 l 1,10,-1
 523 499 l 1,11,12
 511 435 511 435 465 337 c 1,13,-1
 339 400 l 1,14,15
 367 443 367 443 380 488 c 1,16,17
 332 468 332 468 289.5 432.5 c 128,-1,18
 247 397 247 397 222 351 c 0,19,20
 177 265 177 265 184 167 c 1,21,22
 308 190 308 190 390 220 c 1,23,-1
 425 106 l 1,24,25
 306 52 306 52 178 31 c 1,26,-1
 143 59 l 1,27,-1
 70 -37 l 1,28,-1
 1 16 l 1,0,-1
EndSplineSet
EndChar

StartChar: sterling
Encoding: 163 163 124
Width: 659
GlyphClass: 2
Flags: W
LayerCount: 2
Fore
SplineSet
197 140 m 1,0,1
 303 107 303 107 443 82 c 1,2,-1
 404 -41 l 1,3,4
 267 -21 267 -21 192 2 c 0,5,6
 73 38 73 38 -48 91 c 1,7,-1
 9 212 l 1,8,9
 89 177 89 177 167 150 c 1,10,-1
 75 218 l 1,11,12
 108 289 108 289 137 338 c 1,13,14
 107 354 107 354 79 370 c 1,15,-1
 127 457 l 1,16,-1
 188 424 l 1,17,18
 196 438 196 438 205 452 c 128,-1,19
 214 466 214 466 223 480 c 0,20,21
 307 608 307 608 427 670 c 1,22,-1
 624 544 l 1,23,24
 596 438 596 438 553 364 c 1,25,-1
 436 427 l 1,26,27
 477 491 477 491 496 566 c 1,28,29
 424 512 424 512 352 418 c 0,30,31
 342 404 342 404 315 364 c 1,32,33
 367 342 367 342 436 317 c 1,34,-1
 399 225 l 1,35,36
 350 241 350 241 266 277 c 1,37,38
 261 267 261 267 197 140 c 1,0,1
EndSplineSet
EndChar

StartChar: currency
Encoding: 164 164 125
Width: 683
GlyphClass: 2
Flags: W
LayerCount: 2
Fore
SplineSet
162 179 m 1,0,1
 104 152 104 152 67 130 c 1,2,-1
 13 217 l 1,3,4
 63 252 63 252 110 278 c 1,5,6
 106 298 106 298 106 319 c 0,7,8
 106 405 106 405 164 465 c 1,9,10
 146 507 146 507 116 560 c 1,11,-1
 204 614 l 1,12,13
 230 575 230 575 263 520 c 1,14,15
 287 526 287 526 313 526 c 0,16,17
 399 526 399 526 457 466 c 1,18,19
 506 488 506 488 550 515 c 1,20,-1
 603 426 l 1,21,22
 550 391 550 391 510 367 c 1,23,24
 516 344 516 344 516 319 c 0,25,26
 516 233 516 233 453 172 c 1,27,28
 480 113 480 113 503 78 c 1,29,-1
 415 25 l 1,30,31
 380 73 380 73 353 121 c 1,32,33
 336 117 336 117 313 117 c 0,34,35
 222 117 222 117 162 179 c 1,0,1
242 252 m 128,-1,37
 270 224 270 224 311 224 c 0,38,39
 350 224 350 224 378 252 c 0,40,41
 405 279 405 279 405 319.5 c 128,-1,42
 405 360 405 360 378 387.5 c 128,-1,43
 351 415 351 415 310.5 415 c 128,-1,44
 270 415 270 415 242 387.5 c 128,-1,45
 214 360 214 360 214 319 c 0,46,36
 214 280 214 280 242 252 c 128,-1,37
EndSplineSet
EndChar

StartChar: yen
Encoding: 165 165 126
Width: 659
GlyphClass: 2
Flags: W
LayerCount: 2
Fore
SplineSet
291 16 m 1,0,1
 258 30 258 30 215 53 c 1,2,3
 196 8 196 8 179 -42 c 1,4,-1
 56 56 l 1,5,-1
 88 128 l 1,6,7
 32 164 32 164 -5 193 c 1,8,-1
 38 255 l 1,9,10
 71 229 71 229 122 197 c 1,11,12
 130 214 130 214 143 237 c 1,13,14
 95 269 95 269 61 295 c 1,15,-1
 104 356 l 1,16,-1
 175 307 l 1,17,18
 180 530 180 530 222 682 c 1,19,-1
 337 572 l 1,20,21
 314 484 314 484 305 367 c 1,22,23
 371 415 371 415 409 449 c 0,24,25
 475 508 475 508 551 586 c 1,26,-1
 651 495 l 1,27,28
 561 402 561 402 508 361 c 0,29,30
 412 285 412 285 311 224 c 1,31,32
 357 198 357 198 394 181 c 1,33,-1
 357 117 l 1,34,35
 319 132 319 132 265 163 c 1,36,-1
 245 123 l 1,37,38
 288 97 288 97 328 79 c 1,39,-1
 291 16 l 1,0,1
EndSplineSet
EndChar

StartChar: brokenbar
Encoding: 166 166 127
Width: 502
GlyphClass: 2
Flags: W
LayerCount: 2
Fore
SplineSet
201 404 m 1,0,-1
 201 731 l 1,1,-1
 270 668 l 1,2,-1
 270 337 l 1,3,-1
 201 404 l 1,0,-1
201 210 m 1,4,-1
 270 147 l 1,5,-1
 270 -185 l 1,6,-1
 201 -117 l 1,7,-1
 201 210 l 1,4,-1
EndSplineSet
EndChar

StartChar: section
Encoding: 167 167 128
Width: 706
GlyphClass: 2
Flags: W
LayerCount: 2
Fore
SplineSet
598 299 m 1,0,1
 524 180 524 180 397 91 c 1,2,-1
 424 13 l 1,3,4
 372 -71 372 -71 276.5 -127.5 c 128,-1,5
 181 -184 181 -184 58 -211 c 1,6,-1
 -14 -90 l 1,7,8
 195 -46 195 -46 262 34 c 1,9,-1
 51 162 l 1,10,11
 20 182 20 182 1 199 c 1,12,13
 37 287 37 287 108 359 c 0,14,15
 173 425 173 425 244 457 c 1,16,17
 209 479 209 479 188 499 c 1,18,19
 254 614 254 614 351.5 682.5 c 128,-1,20
 449 751 449 751 559 778 c 1,21,-1
 640 668 l 1,22,23
 551 654 551 654 486 616 c 128,-1,24
 421 578 421 578 382 524 c 1,25,-1
 560 419 l 1,26,-1
 598 299 l 1,0,1
458 329 m 1,27,28
 407 362 407 362 357 390 c 1,29,30
 309 372 309 372 263.5 330.5 c 128,-1,31
 218 289 218 289 189 239 c 1,32,33
 206 229 206 229 292 168 c 1,34,35
 396 234 396 234 458 329 c 1,27,28
EndSplineSet
EndChar

StartChar: dieresis
Encoding: 168 168 129
Width: 355
GlyphClass: 2
Flags: W
LayerCount: 2
Fore
SplineSet
151 625 m 256,0,1
 118 625 118 625 95 648.5 c 128,-1,2
 72 672 72 672 72 705 c 256,3,4
 72 738 72 738 95 761 c 128,-1,5
 118 784 118 784 151 784 c 256,6,7
 184 784 184 784 207 761 c 128,-1,8
 230 738 230 738 230 705 c 256,9,10
 230 672 230 672 207 648.5 c 128,-1,11
 184 625 184 625 151 625 c 256,0,1
351 552 m 0,12,13
 328 575 328 575 328 608 c 256,14,15
 328 641 328 641 351.5 664.5 c 128,-1,16
 375 688 375 688 408 688 c 256,17,18
 441 688 441 688 464 664.5 c 128,-1,19
 487 641 487 641 487 608 c 256,20,21
 487 575 487 575 464 552 c 128,-1,22
 441 529 441 529 408 529 c 256,23,24
 375 529 375 529 351 552 c 0,12,13
EndSplineSet
EndChar

StartChar: copyright
Encoding: 169 169 130
Width: 1202
GlyphClass: 2
Flags: W
LayerCount: 2
Fore
SplineSet
190 -44 m 1,0,1
 85 74 85 74 85 246 c 0,2,3
 85 330 85 330 111.5 412.5 c 128,-1,4
 138 495 138 495 190 564 c 1,5,-1
 308 520 l 1,6,7
 263 463 263 463 237 387 c 128,-1,8
 211 311 211 311 211 243.5 c 128,-1,9
 211 176 211 176 228.5 122.5 c 128,-1,10
 246 69 246 69 282 28 c 0,11,12
 363 -61 363 -61 510 -61 c 0,13,14
 588 -61 588 -61 664.5 -26.5 c 128,-1,15
 741 8 741 8 802.5 68 c 128,-1,16
 864 128 864 128 902 209 c 128,-1,17
 940 290 940 290 940 384 c 0,18,19
 940 506 940 506 855 582 c 0,20,21
 725 699 725 699 472 637 c 0,22,23
 385 616 385 616 310 580 c 1,24,-1
 275 678 l 1,25,26
 387 741 387 741 543 762 c 0,27,28
 694 783 694 783 812 740 c 0,29,30
 970 683 970 683 1032 541 c 0,31,32
 1063 471 1063 471 1063 389 c 0,33,34
 1063 268 1063 268 1015.5 165.5 c 128,-1,35
 968 63 968 63 890 -12 c 128,-1,36
 812 -87 812 -87 712.5 -129.5 c 128,-1,37
 613 -172 613 -172 507.5 -172 c 128,-1,38
 402 -172 402 -172 322.5 -137 c 128,-1,39
 243 -102 243 -102 190 -44 c 1,0,1
448 171 m 1,40,41
 583 187 583 187 716 220 c 1,42,-1
 738 117 l 1,43,44
 650 86 650 86 596 75 c 0,45,46
 509 57 509 57 402 45 c 1,47,-1
 303 139 l 1,48,49
 358 373 358 373 534 521 c 0,50,51
 594 572 594 572 670 604 c 1,52,-1
 813 500 l 1,53,54
 797 438 797 438 750 359 c 0,55,56
 737 337 737 337 724 319 c 1,57,-1
 631 373 l 1,58,59
 667 438 667 438 675.5 460.5 c 128,-1,60
 684 483 684 483 689 501 c 1,61,62
 598 457 598 457 528 362 c 1,63,64
 465 273 465 273 448 171 c 1,40,41
EndSplineSet
EndChar

StartChar: ordfeminine
Encoding: 170 170 131
Width: 612
GlyphClass: 2
Flags: W
LayerCount: 2
Fore
SplineSet
333 434 m 1,0,1
 276 392 276 392 198 368 c 1,2,-1
 103 455 l 1,3,4
 103 583 103 583 176 678 c 0,5,6
 255 780 255 780 387 791 c 1,7,-1
 436 716 l 1,8,9
 442 725 442 725 476 764 c 1,10,-1
 550 705 l 1,11,12
 474 604 474 604 422 491 c 1,13,14
 473 507 473 507 519.5 528.5 c 128,-1,15
 566 550 566 550 580 558 c 1,16,-1
 597 474 l 1,17,18
 547 438 547 438 479 405.5 c 128,-1,19
 411 373 411 373 393 367 c 1,20,-1
 333 434 l 1,0,1
215 478 m 1,21,22
 296 499 296 499 336 550 c 1,23,24
 370 596 370 596 387 684 c 1,25,26
 260 658 260 658 226 549 c 0,27,28
 216 515 216 515 215 478 c 1,21,22
EndSplineSet
EndChar

StartChar: logicalnot
Encoding: 172 172 133
Width: 609
GlyphClass: 2
Flags: W
LayerCount: 2
Fore
SplineSet
479 292 m 1,0,1
 417 137 417 137 385 66 c 1,2,-1
 269 117 l 1,3,4
 298 173 298 173 321 226 c 1,5,6
 185 278 185 278 55 310 c 1,7,-1
 101 424 l 1,8,9
 293 374 293 374 479 292 c 1,0,1
EndSplineSet
EndChar

StartChar: registered
Encoding: 174 174 135
Width: 1203
GlyphClass: 2
Flags: W
LayerCount: 2
Fore
SplineSet
190 -44 m 1,0,1
 85 74 85 74 85 246 c 0,2,3
 85 330 85 330 111.5 412.5 c 128,-1,4
 138 495 138 495 190 564 c 1,5,-1
 308 520 l 1,6,7
 263 463 263 463 237 387 c 128,-1,8
 211 311 211 311 211 243.5 c 128,-1,9
 211 176 211 176 228.5 122.5 c 128,-1,10
 246 69 246 69 282 28 c 0,11,12
 363 -61 363 -61 510 -61 c 0,13,14
 588 -61 588 -61 664.5 -26.5 c 128,-1,15
 741 8 741 8 802.5 68 c 128,-1,16
 864 128 864 128 902 209 c 128,-1,17
 940 290 940 290 940 384 c 0,18,19
 940 506 940 506 855 582 c 0,20,21
 725 699 725 699 472 637 c 0,22,23
 385 616 385 616 310 580 c 1,24,-1
 275 678 l 1,25,26
 387 741 387 741 543 762 c 0,27,28
 694 783 694 783 812 740 c 0,29,30
 970 683 970 683 1032 541 c 0,31,32
 1063 471 1063 471 1063 389 c 0,33,34
 1063 268 1063 268 1015.5 165.5 c 128,-1,35
 968 63 968 63 890 -12 c 128,-1,36
 812 -87 812 -87 712.5 -129.5 c 128,-1,37
 613 -172 613 -172 507.5 -172 c 128,-1,38
 402 -172 402 -172 322.5 -137 c 128,-1,39
 243 -102 243 -102 190 -44 c 1,0,1
842 381 m 1,40,41
 772 284 772 284 614 220 c 1,42,-1
 703 91 l 1,43,-1
 588 23 l 1,44,-1
 476 226 l 1,45,46
 424 135 424 135 380 31 c 1,47,-1
 287 116 l 1,48,49
 337 226 337 226 374 287 c 0,50,51
 439 395 439 395 501 469 c 1,52,53
 452 476 452 476 424 476 c 1,54,-1
 459 577 l 1,55,56
 656 568 656 568 785 510 c 1,57,-1
 842 381 l 1,40,41
510 284 m 1,58,59
 599 320 599 320 674 374 c 0,60,61
 698 391 698 391 717 409 c 1,62,63
 644 444 644 444 540 463 c 1,64,-1
 602 412 l 1,65,66
 557 354 557 354 510 284 c 1,58,59
EndSplineSet
EndChar

StartChar: macron
Encoding: 175 175 136
Width: 355
GlyphClass: 2
Flags: W
LayerCount: 2
Fore
SplineSet
387 608 m 1,0,1
 234 677 234 677 61 720 c 1,2,-1
 103 834 l 1,3,4
 267 793 267 793 434 720 c 1,5,-1
 387 608 l 1,0,1
EndSplineSet
EndChar

StartChar: twosuperior
Encoding: 178 178 139
Width: 434
GlyphClass: 2
Flags: W
LayerCount: 2
Fore
SplineSet
338 688 m 1,0,1
 265 709 265 709 183 702 c 1,2,-1
 227 793 l 1,3,4
 339 807 339 807 435 760 c 1,5,-1
 468 655 l 1,6,7
 415 589 415 589 341 553 c 0,8,9
 310 538 310 538 280 525.5 c 128,-1,10
 250 513 250 513 219 494 c 1,11,12
 283 473 283 473 377 461 c 1,13,-1
 328 358 l 1,14,15
 248 366 248 366 146 399 c 0,16,17
 118 408 118 408 96 417 c 1,18,-1
 64 525 l 1,19,20
 118 570 118 570 213 616 c 0,21,22
 249 634 249 634 281 650.5 c 128,-1,23
 313 667 313 667 338 688 c 1,0,1
EndSplineSet
EndChar

StartChar: threesuperior
Encoding: 179 179 140
Width: 437
GlyphClass: 2
Flags: W
LayerCount: 2
Fore
SplineSet
392 456 m 1,0,1
 284 339 284 339 119 363 c 0,2,3
 92 367 92 367 65 376 c 1,4,-1
 45 476 l 1,5,6
 193 437 193 437 266 496 c 1,7,8
 203 535 203 535 129 558 c 1,9,-1
 173 636 l 1,10,11
 282 636 282 636 348 683 c 1,12,13
 274 710 274 710 182 702 c 1,14,-1
 227 794 l 1,15,16
 237 796 237 796 248 796 c 2,17,-1
 271 796 l 2,18,19
 366 796 366 796 437 756 c 1,20,-1
 468 648 l 1,21,22
 394 586 394 586 316 565 c 1,23,24
 336 557 336 557 365 541 c 1,25,-1
 392 456 l 1,0,1
EndSplineSet
EndChar

StartChar: acute
Encoding: 180 180 141
Width: 355
GlyphClass: 2
Flags: W
LayerCount: 2
Fore
SplineSet
400 723 m 1,0,1
 311 640 311 640 164 539 c 1,2,-1
 89 616 l 1,3,4
 198 700 198 700 303 817 c 1,5,-1
 400 723 l 1,0,1
EndSplineSet
EndChar

StartChar: mu
Encoding: 181 181 142
Width: 691
GlyphClass: 2
Flags: W
LayerCount: 2
Fore
SplineSet
399 133 m 1,0,1
 454 148 454 148 537 185 c 1,2,-1
 565 75 l 1,3,4
 432 -2 432 -2 364 -23 c 1,5,-1
 284 66 l 1,6,7
 235 21 235 21 201.5 3 c 128,-1,8
 168 -15 168 -15 140 -27 c 1,9,-1
 82 22 l 1,10,11
 47 -80 47 -80 13 -205 c 1,12,-1
 -95 -125 l 1,13,14
 -39 68 -39 68 12 186 c 0,15,16
 94 379 94 379 194 540 c 1,17,-1
 298 461 l 1,18,19
 187 289 187 289 118 118 c 1,20,21
 227 146 227 146 316 259 c 1,22,23
 386 401 386 401 450 491 c 1,24,-1
 556 408 l 1,25,26
 463 268 463 268 403 135 c 1,27,-1
 399 133 l 1,0,1
EndSplineSet
EndChar

StartChar: paragraph
Encoding: 182 182 143
Width: 768
GlyphClass: 2
Flags: W
LayerCount: 2
Fore
SplineSet
783 466 m 1,0,1
 728 492 728 492 650 524 c 1,2,3
 544 364 544 364 444.5 190 c 128,-1,4
 345 16 345 16 258 -185 c 1,5,-1
 144 -83 l 1,6,7
 216 74 216 74 310 240 c 1,8,9
 161 385 161 385 94 594 c 1,10,-1
 234 747 l 1,11,12
 310 755 310 755 393 745 c 128,-1,13
 476 735 476 735 534 718 c 0,14,15
 643 686 643 686 779 604 c 1,16,-1
 783 466 l 1,0,1
514 573 m 1,17,18
 396 607 396 607 281 607 c 2,19,-1
 264 607 l 2,20,21
 255 607 255 607 246 606 c 1,22,23
 291 477 291 477 386 368 c 1,24,25
 476 515 476 515 514 573 c 1,17,18
EndSplineSet
EndChar

StartChar: cedilla
Encoding: 184 184 145
Width: 355
GlyphClass: 2
Flags: W
LayerCount: 2
Fore
SplineSet
81 -104 m 1,0,1
 61 -80 61 -80 33 -58 c 1,2,-1
 119 58 l 1,3,-1
 217 62 l 1,4,-1
 148 -38 l 1,5,6
 173 -57 173 -57 222 -104 c 1,7,-1
 187 -179 l 1,8,9
 87 -209 87 -209 -61 -214 c 1,10,-1
 -75 -133 l 1,11,12
 14 -124 14 -124 81 -104 c 1,0,1
EndSplineSet
EndChar

StartChar: onesuperior
Encoding: 185 185 146
Width: 335
GlyphClass: 2
Flags: W
LayerCount: 2
Fore
SplineSet
104 707 m 1,0,1
 207 761 207 761 302 795 c 1,2,-1
 385 709 l 1,3,4
 268 543 268 543 178 365 c 1,5,-1
 84 449 l 1,6,7
 135 541 135 541 217 659 c 1,8,9
 176 641 176 641 138 621 c 1,10,-1
 104 707 l 1,0,1
EndSplineSet
EndChar

StartChar: ordmasculine
Encoding: 186 186 147
Width: 519
GlyphClass: 2
Flags: W
LayerCount: 2
Fore
SplineSet
121 457 m 1,0,1
 121 524 121 524 152 602 c 1,2,3
 191 696 191 696 276 746 c 0,4,5
 337 781 337 781 400 791 c 1,6,-1
 523 688 l 1,7,8
 503 554 503 554 424 467 c 1,9,10
 352 391 352 391 229 368 c 1,11,-1
 121 457 l 1,0,1
235 480 m 1,12,13
 307 497 307 497 345 542 c 0,14,15
 384 589 384 589 404 651 c 0,16,17
 410 672 410 672 410 690 c 1,18,19
 375 688 375 688 334 660 c 0,20,21
 298 635 298 635 274 597 c 1,22,23
 240 547 240 547 235 480 c 1,12,13
EndSplineSet
EndChar

StartChar: onequarter
Encoding: 188 188 149
Width: 904
GlyphClass: 2
Flags: W
LayerCount: 2
Fore
SplineSet
95 707 m 1,0,1
 198 761 198 761 293 795 c 1,2,-1
 376 709 l 1,3,4
 259 543 259 543 169 365 c 1,5,-1
 75 449 l 1,6,7
 126 541 126 541 208 659 c 1,8,9
 167 641 167 641 129 621 c 1,10,-1
 95 707 l 1,0,1
25 67 m 1,11,12
 270 330 270 330 484 526 c 1,13,14
 560 597 560 597 644 671 c 1,15,-1
 703 603 l 1,16,17
 512 435 512 435 417 340 c 0,18,19
 250 175 250 175 92 -5 c 1,20,-1
 25 67 l 1,11,12
524 168 m 1,21,22
 596 152 596 152 600 151 c 1,23,24
 654 239 654 239 725 329 c 1,25,-1
 801 265 l 1,26,27
 754 203 754 203 705 122 c 1,28,-1
 766 101 l 1,29,-1
 724 12 l 1,30,31
 707 17 707 17 690 22 c 128,-1,32
 673 27 673 27 655 32 c 1,33,34
 627 -21 627 -21 594 -96 c 1,35,-1
 510 -21 l 1,36,37
 528 23 528 23 547 60 c 1,38,39
 506 69 506 69 412 87 c 1,40,-1
 400 175 l 1,41,42
 475 282 475 282 586 368 c 1,43,-1
 662 303 l 1,44,45
 583 238 583 238 524 168 c 1,21,22
EndSplineSet
EndChar

StartChar: threequarters
Encoding: 190 190 151
Width: 1026
GlyphClass: 2
Flags: W
LayerCount: 2
Fore
SplineSet
410 456 m 1,0,1
 302 339 302 339 137 363 c 0,2,3
 110 367 110 367 83 376 c 1,4,-1
 63 476 l 1,5,6
 211 437 211 437 284 496 c 1,7,8
 221 535 221 535 147 558 c 1,9,-1
 191 636 l 1,10,11
 300 636 300 636 366 683 c 1,12,13
 292 710 292 710 200 702 c 1,14,-1
 245 794 l 1,15,16
 255 796 255 796 266 796 c 2,17,-1
 289 796 l 2,18,19
 384 796 384 796 455 756 c 1,20,-1
 486 648 l 1,21,22
 412 586 412 586 334 565 c 1,23,24
 354 557 354 557 383 541 c 1,25,-1
 410 456 l 1,0,1
142 67 m 1,26,27
 387 330 387 330 600 526 c 0,28,29
 677 597 677 597 761 671 c 1,30,-1
 820 603 l 1,31,32
 629 435 629 435 534 340 c 0,33,34
 367 175 367 175 209 -5 c 1,35,-1
 142 67 l 1,26,27
646 167 m 1,36,37
 682 161 682 161 722 151 c 1,38,39
 776 239 776 239 847 329 c 1,40,-1
 922 265 l 1,41,42
 875 203 875 203 826 122 c 1,43,-1
 887 101 l 1,44,-1
 846 12 l 1,45,-1
 776 33 l 1,46,47
 750 -16 750 -16 715 -96 c 1,48,-1
 632 -21 l 1,49,50
 650 23 650 23 669 60 c 1,51,52
 628 69 628 69 534 87 c 1,53,-1
 521 175 l 1,54,55
 600 285 600 285 707 368 c 1,56,-1
 784 303 l 1,57,58
 708 241 708 241 646 167 c 1,36,37
EndSplineSet
EndChar

StartChar: AE
Encoding: 198 198 159
Width: 951
GlyphClass: 2
Flags: W
LayerCount: 2
Fore
SplineSet
199 244 m 1,0,1
 96 105 96 105 35 -29 c 1,2,-1
 -82 72 l 1,3,4
 -13 198 -13 198 82 320 c 1,5,-1
 10 361 l 1,6,-1
 96 469 l 1,7,8
 146 441 146 441 170 426 c 1,9,10
 289 562 289 562 397 649 c 1,11,-1
 472 580 l 1,12,13
 487 641 487 641 493 695 c 1,14,-1
 592 607 l 1,15,-1
 603 669 l 1,16,17
 761 649 761 649 947 573 c 1,18,-1
 893 446 l 1,19,20
 751 506 751 506 604 533 c 1,21,22
 588 463 588 463 566 393 c 1,23,24
 685 362 685 362 791 343 c 1,25,-1
 747 220 l 1,26,27
 632 243 632 243 524 275 c 1,28,29
 498 212 498 212 467 146 c 1,30,31
 619 108 619 108 790 92 c 1,32,-1
 745 -36 l 1,33,34
 567 -19 567 -19 408 24 c 1,35,-1
 374 -41 l 1,36,-1
 261 62 l 1,37,38
 302 137 302 137 308 148 c 1,39,40
 256 203 256 203 199 244 c 1,0,1
280 344 m 1,41,42
 322 307 322 307 361 262 c 1,43,44
 425 409 425 409 457 525 c 1,45,46
 360 436 360 436 280 344 c 1,41,42
EndSplineSet
EndChar

StartChar: Ccedilla
Encoding: 199 199 160
Width: 608
GlyphClass: 2
Flags: W
LayerCount: 2
Fore
SplineSet
38 -122 m 1,0,1
 18 -98 18 -98 -10 -76 c 1,2,-1
 44 -3 l 1,3,-1
 -52 86 l 1,4,5
 -7 282 -7 282 108 441 c 1,6,7
 239 620 239 620 426 699 c 1,8,-1
 616 562 l 1,9,10
 590 477 590 477 522 365 c 0,11,12
 503 334 503 334 486 310 c 1,13,-1
 370 374 l 1,14,15
 438 491 438 491 461 571 c 1,16,17
 336 509 336 509 240 381 c 1,18,19
 148 256 148 256 127 124 c 1,20,21
 285 135 285 135 415 199 c 1,22,-1
 454 85 l 1,23,24
 328 7 328 7 163 -21 c 0,25,26
 143 -24 143 -24 125 -27 c 1,27,-1
 105 -56 l 1,28,29
 130 -75 130 -75 179 -122 c 1,30,-1
 144 -197 l 1,31,32
 44 -227 44 -227 -104 -232 c 1,33,-1
 -118 -151 l 1,34,35
 -29 -142 -29 -142 38 -122 c 1,0,1
EndSplineSet
EndChar

StartChar: Eth
Encoding: 208 208 169
Width: 692
GlyphClass: 2
Flags: W
LayerCount: 2
Fore
SplineSet
-57 92 m 1,0,1
 -4 212 -4 212 54 317 c 1,2,3
 13 327 13 327 -29 336 c 1,4,-1
 13 448 l 1,5,6
 53 440 53 440 121 423 c 1,7,8
 164 488 164 488 227 564 c 1,9,10
 150 575 150 575 102 575 c 1,11,-1
 145 694 l 1,12,13
 265 689 265 689 376 670.5 c 128,-1,14
 487 652 487 652 593 606 c 1,15,-1
 652 472 l 1,16,17
 604 269 604 269 439 136 c 0,18,19
 287 14 287 14 71 -26 c 1,20,-1
 -57 92 l 1,0,1
119 123 m 1,21,22
 255 162 255 162 360 257 c 0,23,24
 471 357 471 357 506 490 c 1,25,26
 399 535 399 535 256 559 c 1,27,-1
 344 487 l 1,28,29
 301 433 301 433 264 378 c 1,30,31
 297 366 297 366 335 351 c 1,32,-1
 288 239 l 1,33,34
 241 258 241 258 197 273 c 1,35,36
 155 203 155 203 119 123 c 1,21,22
EndSplineSet
EndChar

StartChar: multiply
Encoding: 215 215 176
Width: 609
GlyphClass: 2
Flags: W
LayerCount: 2
Fore
SplineSet
237 205 m 1,0,1
 119 136 119 136 102 126 c 1,2,-1
 43 233 l 1,3,4
 111 276 111 276 180 313 c 1,5,6
 147 378 147 378 117 446 c 1,7,-1
 225 497 l 1,8,9
 237 468 237 468 253 436 c 2,10,-1
 286 370 l 1,11,12
 411 433 411 433 432 442 c 1,13,-1
 485 335 l 1,14,15
 455 322 455 322 344 263 c 1,16,17
 402 163 402 163 426 130 c 1,18,-1
 318 73 l 1,19,20
 287 118 287 118 237 205 c 1,0,1
EndSplineSet
EndChar

StartChar: Oslash
Encoding: 216 216 177
Width: 695
GlyphClass: 2
Flags: W
LayerCount: 2
Fore
SplineSet
-81 -39 m 1,0,1
 -23 17 -23 17 12 56 c 1,2,-1
 -18 84 l 1,3,4
 11 392 11 392 235 580 c 0,5,6
 313 646 313 646 418 695 c 1,7,8
 487 661 487 661 543 618 c 1,9,-1
 637 719 l 1,10,-1
 708 652 l 1,11,-1
 619 554 l 1,12,-1
 652 521 l 1,13,-1
 607 386 l 1,14,15
 540 198 540 198 432 95 c 0,16,17
 315 -17 315 -17 130 -52 c 1,18,-1
 85 -11 l 1,19,20
 33 -63 33 -63 -11 -109 c 1,21,-1
 -81 -39 l 1,0,1
607 386 m 1,22,23
 501 481 501 481 409 537 c 1,24,25
 307 484 307 484 228 357 c 0,26,27
 146 226 146 226 136 91 c 1,28,29
 293 134 293 134 404 304 c 0,30,31
 441 362 441 362 469 436 c 1,32,-1
 607 386 l 1,22,23
EndSplineSet
EndChar

StartChar: Thorn
Encoding: 222 222 183
Width: 667
GlyphClass: 2
Flags: W
LayerCount: 2
Fore
SplineSet
-66 78 m 1,0,1
 48 331 48 331 179 535 c 0,2,3
 228 611 228 611 285 690 c 1,4,-1
 394 594 l 1,5,6
 365 554 365 554 343 520 c 1,7,8
 412 491 412 491 508 435 c 1,9,-1
 586 260 l 1,10,11
 470 188 470 188 405 160 c 1,12,13
 301 117 301 117 194 96 c 1,14,-1
 145 176 l 1,15,16
 92 70 92 70 50 -29 c 1,17,-1
 -66 78 l 1,0,1
430 328 m 1,18,19
 366 368 366 368 271 408 c 1,20,21
 223 327 223 327 172 229 c 1,22,23
 319 260 319 260 430 328 c 1,18,19
EndSplineSet
EndChar

StartChar: germandbls
Encoding: 223 223 184
Width: 679
GlyphClass: 2
Flags: W
LayerCount: 2
Fore
SplineSet
461 495 m 1,0,1
 398 529 398 529 304 561 c 1,2,3
 185 369 185 369 86 126 c 0,4,5
 53 44 53 44 31 -29 c 1,6,-1
 -87 49 l 1,7,8
 -43 195 -43 195 98 460 c 0,9,10
 138 534 138 534 175 598 c 1,11,12
 244 643 244 643 336 672 c 1,13,14
 481 633 481 633 590 559 c 1,15,-1
 606 431 l 1,16,17
 476 377 476 377 418 313 c 1,18,19
 439 281 439 281 478.5 246 c 128,-1,20
 518 211 518 211 560 171 c 1,21,22
 635 206 635 206 684 232 c 1,23,-1
 706 131 l 1,24,25
 537 12 537 12 315 -35 c 1,26,27
 219 21 219 21 153 87 c 1,28,-1
 231 181 l 1,29,30
 284 130 284 130 347 93 c 1,31,32
 387 103 387 103 433 119 c 1,33,-1
 327 222 l 2,34,35
 262 286 262 286 245 312 c 1,36,37
 308 407 308 407 461 495 c 1,0,1
EndSplineSet
EndChar

StartChar: ae
Encoding: 230 230 191
Width: 839
GlyphClass: 2
Flags: W
LayerCount: 2
Fore
SplineSet
272 86 m 1,0,1
 198 16 198 16 90 -27 c 1,2,-1
 -34 88 l 1,3,4
 -34 167 -34 167 -10 243 c 128,-1,5
 14 319 14 319 61 380 c 128,-1,6
 108 441 108 441 177.5 481.5 c 128,-1,7
 247 522 247 522 338 530 c 1,8,-1
 379 467 l 1,9,10
 407 534 407 534 424 562 c 1,11,-1
 499 483 l 1,12,13
 551 515 551 515 600 531 c 1,14,-1
 769 391 l 1,15,16
 744 287 744 287 674 240 c 128,-1,17
 604 193 604 193 507 193 c 0,18,19
 451 193 451 193 424 200 c 1,20,21
 408 161 408 161 404 103 c 1,22,23
 577 113 577 113 740 180 c 0,24,25
 795 202 795 202 844 232 c 1,26,-1
 866 131 l 1,27,28
 773 72 773 72 648 27 c 0,29,30
 516 -21 516 -21 395 -27 c 1,31,-1
 272 86 l 1,0,1
466 290 m 1,32,33
 524 290 524 290 571 322 c 0,34,35
 626 360 626 360 626 428 c 1,36,37
 575 404 575 404 532 367.5 c 128,-1,38
 489 331 489 331 466 290 c 1,32,33
106 117 m 1,39,40
 224 149 224 149 310 259 c 1,41,42
 327 317 327 317 340 401 c 1,43,44
 237 391 237 391 171 310 c 0,45,46
 106 230 106 230 106 117 c 1,39,40
EndSplineSet
EndChar

StartChar: ccedilla
Encoding: 231 231 192
Width: 531
GlyphClass: 2
Flags: W
LayerCount: 2
Fore
SplineSet
68 -113 m 1,0,1
 48 -89 48 -89 20 -67 c 1,2,-1
 67 -3 l 1,3,-1
 -32 88 l 1,4,5
 -32 159 -32 159 -23 198 c 0,6,7
 16 363 16 363 168 464 c 0,8,9
 236 509 236 509 306 531 c 1,10,-1
 466 412 l 1,11,12
 461 389 461 389 438 339 c 0,13,14
 400 255 400 255 378 224 c 1,15,-1
 252 304 l 1,16,17
 306 372 306 372 320 418 c 1,18,19
 224 377 224 377 164 286 c 0,20,21
 110 204 110 204 110 103 c 1,22,23
 355 135 355 135 536 232 c 1,24,-1
 558 131 l 1,25,26
 401 32 401 32 216 -9 c 0,27,28
 184 -17 184 -17 153 -21 c 1,29,-1
 135 -47 l 1,30,31
 160 -66 160 -66 209 -113 c 1,32,-1
 174 -188 l 1,33,34
 74 -218 74 -218 -74 -223 c 1,35,-1
 -88 -142 l 1,36,37
 1 -133 1 -133 68 -113 c 1,0,1
EndSplineSet
EndChar

StartChar: eth
Encoding: 240 240 201
Width: 581
GlyphClass: 2
Flags: W
LayerCount: 2
Fore
SplineSet
422 212 m 1,0,1
 506 216 506 216 586 232 c 1,2,-1
 607 131 l 1,3,4
 491 82 491 82 386 58 c 1,5,-1
 345 106 l 1,6,7
 303 63 303 63 239.5 26 c 128,-1,8
 176 -11 176 -11 91 -27 c 1,9,-1
 -51 92 l 1,10,11
 -43 186 -43 186 2 278 c 0,12,13
 18 311 18 311 39 338 c 0,14,15
 81 392 81 392 131.5 423 c 128,-1,16
 182 454 182 454 249 474 c 1,17,-1
 340 382 l 1,18,19
 356 442 356 442 358 526 c 1,20,21
 314 520 314 520 267 510 c 1,22,-1
 252 619 l 1,23,24
 302 629 302 629 353 635 c 1,25,-1
 343 705 l 1,26,-1
 481 725 l 1,27,28
 488 684 488 684 493 649 c 1,29,30
 519 651 519 651 593 654 c 1,31,-1
 599 545 l 1,32,33
 502 541 502 541 499 541 c 1,34,35
 499 355 499 355 422 212 c 1,0,1
89 108 m 1,36,37
 182 129 182 129 248 207 c 0,38,39
 312 283 312 283 336 366 c 1,40,41
 227 343 227 343 162 272 c 0,42,43
 102 205 102 205 89 108 c 1,36,37
EndSplineSet
EndChar

StartChar: divide
Encoding: 247 247 208
Width: 609
GlyphClass: 2
Flags: W
LayerCount: 2
Fore
SplineSet
284 443 m 1,0,1
 260 468 260 468 260 503.5 c 128,-1,2
 260 539 260 539 284.5 563.5 c 128,-1,3
 309 588 309 588 344 588 c 256,4,5
 379 588 379 588 403.5 563.5 c 128,-1,6
 428 539 428 539 428 503 c 0,7,8
 428 468 428 468 403.5 443.5 c 128,-1,9
 379 419 379 419 344 419 c 128,-1,10
 309 419 309 419 284 443 c 1,0,1
442 190 m 1,11,12
 249 273 249 273 64 319 c 1,13,-1
 110 433 l 1,14,15
 302 383 302 383 488 301 c 1,16,-1
 442 190 l 1,11,12
149.5 65.5 m 128,-1,18
 125 90 125 90 125 125.5 c 128,-1,19
 125 161 125 161 149.5 185.5 c 128,-1,20
 174 210 174 210 209 210 c 256,21,22
 244 210 244 210 268.5 185.5 c 128,-1,23
 293 161 293 161 293 125 c 0,24,25
 293 90 293 90 268.5 65.5 c 128,-1,26
 244 41 244 41 209 41 c 128,-1,17
 174 41 174 41 149.5 65.5 c 128,-1,18
EndSplineSet
EndChar

StartChar: oslash
Encoding: 248 248 209
Width: 586
GlyphClass: 2
Flags: W
LayerCount: 2
Fore
SplineSet
-77 -22 m 1,0,-1
 -1 64 l 1,1,-1
 -34 92 l 1,2,3
 -34 188 -34 188 4 282 c 0,4,5
 52 400 52 400 162 473 c 0,6,7
 238 524 238 524 327 536 c 1,8,-1
 376 494 l 1,9,-1
 445 580 l 1,10,-1
 511 526 l 1,11,12
 494 506 494 506 440 439 c 1,13,-1
 486 400 l 1,14,15
 469 292 469 292 428 212 c 1,16,17
 500 216 500 216 591 232 c 1,18,-1
 613 131 l 1,19,20
 483 77 483 77 409 58 c 1,21,-1
 361 113 l 1,22,23
 265 2 265 2 108 -27 c 1,24,-1
 64 10 l 1,25,-1
 -13 -77 l 1,26,-1
 -77 -22 l 1,0,-1
100 109 m 1,27,28
 214 135 214 135 290 250 c 0,29,30
 322 299 322 299 336 344 c 128,-1,31
 350 389 350 389 351 416 c 1,32,33
 270 405 270 405 197 330 c 0,34,35
 106 237 106 237 100 109 c 1,27,28
EndSplineSet
EndChar

StartChar: thorn
Encoding: 254 254 215
Width: 611
GlyphClass: 2
Flags: W
LayerCount: 2
Fore
SplineSet
184 351 m 1,0,1
 268 425 268 425 375 484 c 1,2,-1
 496 389 l 1,3,4
 488 309 488 309 470 251 c 128,-1,5
 452 193 452 193 411 151 c 1,6,7
 524 189 524 189 616 232 c 1,8,-1
 637 131 l 1,9,10
 510 60 510 60 283 4 c 0,11,12
 213 -14 213 -14 142 -27 c 1,13,-1
 45 62 l 1,14,15
 2 -39 2 -39 -28.5 -131 c 128,-1,16
 -59 -223 -59 -223 -79 -284 c 1,17,-1
 -194 -207 l 1,18,19
 -12 305 -12 305 259 714 c 1,20,-1
 363 637 l 1,21,22
 273 505 273 505 236.5 442 c 128,-1,23
 200 379 200 379 184 351 c 1,0,1
54 83 m 1,24,25
 111 92 111 92 160 104.5 c 128,-1,26
 209 117 209 117 224.5 124.5 c 128,-1,27
 240 132 240 132 262 153 c 128,-1,28
 284 174 284 174 302 202 c 0,29,30
 342 266 342 266 352 336 c 1,31,32
 241 278 241 278 91 165 c 1,33,-1
 54 83 l 1,24,25
EndSplineSet
EndChar

StartChar: hbar
Encoding: 295 295 217
Width: 629
GlyphClass: 2
Flags: W
LayerCount: 2
Fore
SplineSet
188 349 m 1,0,1
 281 420 281 420 402 484 c 1,2,-1
 523 389 l 1,3,4
 490 247 490 247 407 133 c 1,5,6
 507 167 507 167 634 232 c 1,7,-1
 655 131 l 1,8,9
 614 104 614 104 530 62 c 0,10,11
 386 -9 386 -9 331 -27 c 1,12,-1
 207 61 l 1,13,14
 267 133 267 133 307.5 203.5 c 128,-1,15
 348 274 348 274 360 327 c 1,16,17
 229 262 229 262 187.5 235 c 128,-1,18
 146 208 146 208 113 185 c 1,19,20
 64 64 64 64 38 -27 c 1,21,-1
 -81 50 l 1,22,23
 -48 163 -48 163 64 388 c 0,24,25
 111 483 111 483 155 561 c 1,26,27
 123 577 123 577 91 591 c 1,28,-1
 139 677 l 1,29,30
 171 664 171 664 205 648 c 1,31,32
 228 685 228 685 247 714 c 1,33,-1
 349 637 l 1,34,35
 333 612 333 612 318 586 c 1,36,37
 349 567 349 567 379 547 c 1,38,-1
 325 463 l 1,39,40
 297 482 297 482 268 500 c 1,41,42
 267 498 267 498 246.5 461 c 128,-1,43
 226 424 226 424 188 349 c 1,0,1
EndSplineSet
EndChar

StartChar: dotlessi
Encoding: 305 305 220
Width: 332
GlyphClass: 2
Flags: W
LayerCount: 2
Fore
SplineSet
92 126 m 1,0,1
 194 157 194 157 337 232 c 1,2,-1
 358 131 l 1,3,4
 261 68 261 68 124 8 c 0,5,6
 78 -12 78 -12 34 -27 c 1,7,-1
 -81 79 l 1,8,9
 -32 213 -32 213 95 413 c 0,10,11
 133 473 133 473 169 518 c 1,12,-1
 268 445 l 1,13,14
 195 345 195 345 126 204 c 0,15,16
 106 162 106 162 92 126 c 1,0,1
EndSplineSet
EndChar

StartChar: ij
Encoding: 307 307 222
Width: 663
GlyphClass: 2
Flags: W
LayerCount: 2
Fore
SplineSet
551 624 m 256,0,1
 551 658 551 658 574.5 681.5 c 128,-1,2
 598 705 598 705 632 705 c 256,3,4
 666 705 666 705 689.5 681.5 c 128,-1,5
 713 658 713 658 713 624 c 256,6,7
 713 590 713 590 689.5 566.5 c 128,-1,8
 666 543 666 543 632 543 c 256,9,10
 598 543 598 543 574.5 566.5 c 128,-1,11
 551 590 551 590 551 624 c 256,0,1
243 566 m 1,12,13
 220 590 220 590 220 624 c 256,14,15
 220 658 220 658 243.5 681.5 c 128,-1,16
 267 705 267 705 301 705 c 256,17,18
 335 705 335 705 358.5 681.5 c 128,-1,19
 382 658 382 658 382 624 c 256,20,21
 382 590 382 590 358.5 566.5 c 128,-1,22
 335 543 335 543 301 543 c 256,23,24
 267 543 267 543 243 566 c 1,12,13
234 60 m 1,25,26
 119 2 119 2 34 -27 c 1,27,-1
 -81 79 l 1,28,29
 -32 213 -32 213 95 413 c 0,30,31
 133 473 133 473 169 518 c 1,32,-1
 268 445 l 1,33,34
 195 345 195 345 126 204 c 0,35,36
 106 162 106 162 92 126 c 1,37,38
 191 157 191 157 309 217 c 1,39,40
 396 382 396 382 500 518 c 1,41,-1
 599 445 l 1,42,43
 479 280 479 280 414 124 c 1,44,45
 488 146 488 146 549.5 174.5 c 128,-1,46
 611 203 611 203 668 232 c 1,47,-1
 689 131 l 1,48,49
 599 72 599 72 470 16 c 0,50,51
 427 -3 427 -3 383 -18 c 1,52,-1
 356 8 l 1,53,54
 300 -113 300 -113 243 -294 c 1,55,-1
 127 -221 l 1,56,57
 165 -100 165 -100 234 60 c 1,25,26
EndSplineSet
EndChar

StartChar: kgreenlandic
Encoding: 312 312 227
Width: 552
GlyphClass: 2
Flags: W
LayerCount: 2
Fore
SplineSet
579 131 m 1,0,1
 443 40 443 40 300 -27 c 1,2,-1
 175 61 l 1,3,4
 142 157 142 157 132 237 c 1,5,6
 92 146 92 146 38 -27 c 1,7,-1
 -81 50 l 1,8,9
 -23 245 -23 245 90 440 c 0,10,11
 128 506 128 506 172 568 c 1,12,-1
 282 491 l 1,13,14
 213 402 213 402 160 296 c 1,15,16
 314 438 314 438 443 529 c 1,17,-1
 545 434 l 1,18,19
 361 317 361 317 261 245 c 1,20,21
 278 197 278 197 312 128 c 1,22,23
 439 171 439 171 557 232 c 1,24,-1
 579 131 l 1,0,1
EndSplineSet
EndChar

StartChar: ldot
Encoding: 320 320 229
Width: 465
GlyphClass: 2
Flags: W
LayerCount: 2
Fore
SplineSet
-63 88 m 1,0,1
 -28 218 -28 218 71 402 c 0,2,3
 182 607 182 607 292 736 c 1,4,-1
 394 661 l 1,5,6
 291 539 291 539 194 357 c 1,7,8
 111 204 111 204 83 97 c 1,9,10
 219 107 219 107 368 176 c 0,11,12
 420 199 420 199 470 232 c 1,13,-1
 491 131 l 1,14,15
 343 28 343 28 172 -11 c 0,16,17
 115 -24 115 -24 61 -27 c 1,18,-1
 -63 88 l 1,0,1
262 242 m 128,-1,20
 238 266 238 266 238 300.5 c 128,-1,21
 238 335 238 335 262 359 c 128,-1,22
 286 383 286 383 321 383 c 256,23,24
 356 383 356 383 380 359 c 128,-1,25
 404 335 404 335 404 300.5 c 128,-1,26
 404 266 404 266 380 242 c 128,-1,27
 356 218 356 218 321 218 c 256,28,19
 286 218 286 218 262 242 c 128,-1,20
EndSplineSet
EndChar

StartChar: Lslash
Encoding: 321 321 230
Width: 510
GlyphClass: 2
Flags: W
LayerCount: 2
Fore
SplineSet
427 322 m 1,0,1
 291 294 291 294 -40 248 c 1,2,-1
 -52 339 l 1,3,4
 98 360 98 360 410 422 c 1,5,-1
 427 322 l 1,0,1
125 140 m 1,6,7
 229 118 229 118 391 102 c 1,8,-1
 348 -37 l 1,9,10
 211 -25 211 -25 151.5 -14 c 128,-1,11
 92 -3 92 -3 58 4 c 1,12,-1
 -62 113 l 1,13,14
 60 367 60 367 297 689 c 1,15,-1
 400 585 l 1,16,17
 269 405 269 405 125 140 c 1,6,7
EndSplineSet
EndChar

StartChar: lslash
Encoding: 322 322 231
Width: 465
GlyphClass: 2
Flags: W
LayerCount: 2
Fore
SplineSet
255 703 m 1,0,1
 201 694 201 694 141 673 c 1,2,-1
 98 735 l 1,3,4
 193 792 193 792 274 810 c 1,5,6
 412 735 412 735 530 635 c 1,7,-1
 487 550 l 1,8,9
 377 640 377 640 255 703 c 1,0,1
-63 88 m 1,10,11
 -30 206 -30 206 55 362 c 1,12,13
 142 524 142 524 250 655 c 1,14,-1
 362 579 l 1,15,16
 263 457 263 457 180 313 c 0,17,18
 107 185 107 185 81 99 c 1,19,20
 222 110 222 110 368 176 c 0,21,22
 420 199 420 199 470 232 c 1,23,-1
 491 131 l 1,24,25
 343 28 343 28 172 -11 c 0,26,27
 115 -24 115 -24 61 -27 c 1,28,-1
 -63 88 l 1,10,11
EndSplineSet
EndChar

StartChar: OE
Encoding: 338 338 234
Width: 951
GlyphClass: 2
Flags: W
LayerCount: 2
Fore
SplineSet
380 51 m 1,0,1
 279 -27 279 -27 130 -52 c 1,2,-1
 -18 84 l 1,3,4
 11 392 11 392 235 580 c 0,5,6
 313 646 313 646 418 695 c 1,7,8
 485 659 485 659 536 623 c 1,9,-1
 562 679 l 1,10,11
 762 651 762 651 947 573 c 1,12,-1
 893 446 l 1,13,14
 801 484 801 484 652 521 c 1,15,-1
 609 394 l 1,16,17
 700 370 700 370 802 352 c 1,18,-1
 758 229 l 1,19,-1
 646 253 l 1,20,21
 582 268 582 268 550 279 c 1,22,23
 524 234 524 234 478 141 c 1,24,25
 633 101 633 101 786 92 c 1,26,-1
 741 -36 l 1,27,28
 588 -28 588 -28 422 13 c 1,29,-1
 380 51 l 1,0,1
593 398 m 1,30,31
 497 483 497 483 409 537 c 1,32,33
 309 484 309 484 230 359 c 0,34,35
 148 231 148 231 136 96 c 1,36,37
 174 102 174 102 212 115.5 c 128,-1,38
 250 129 250 129 291 164 c 0,39,40
 381 241 381 241 476 433 c 1,41,42
 503 424 503 424 593 398 c 1,30,31
EndSplineSet
EndChar

StartChar: oe
Encoding: 339 339 235
Width: 830
GlyphClass: 2
Flags: W
LayerCount: 2
Fore
SplineSet
289 62 m 1,0,1
 206 -1 206 -1 108 -27 c 1,2,-1
 -34 92 l 1,3,4
 -34 188 -34 188 4 282 c 0,5,6
 52 400 52 400 162 473 c 0,7,8
 238 524 238 524 327 536 c 1,9,-1
 436 442 l 1,10,11
 506 503 506 503 591 531 c 1,12,-1
 760 391 l 1,13,14
 735 287 735 287 665 240 c 128,-1,15
 595 193 595 193 498 193 c 0,16,17
 442 193 442 193 415 200 c 1,18,19
 399 161 399 161 395 103 c 1,20,21
 568 113 568 113 731 180 c 0,22,23
 786 202 786 202 835 232 c 1,24,-1
 857 131 l 1,25,26
 764 72 764 72 640 27 c 0,27,28
 507 -21 507 -21 386 -27 c 1,29,-1
 289 62 l 1,0,1
457 290 m 1,30,31
 515 290 515 290 562 322 c 0,32,33
 617 360 617 360 617 428 c 1,34,35
 566 404 566 404 523 367.5 c 128,-1,36
 480 331 480 331 457 290 c 1,30,31
100 109 m 1,37,38
 214 135 214 135 290 250 c 0,39,40
 322 299 322 299 336 344 c 128,-1,41
 350 389 350 389 351 416 c 1,42,43
 270 405 270 405 197 330 c 0,44,45
 106 237 106 237 100 109 c 1,37,38
EndSplineSet
EndChar

StartChar: dotlessj
Encoding: 567 567 242
Width: 332
GlyphClass: 2
Flags: W
LayerCount: 2
Fore
SplineSet
25 8 m 1,0,1
 -31 -113 -31 -113 -88 -294 c 1,2,-1
 -204 -221 l 1,3,4
 -81 160 -81 160 114 443 c 0,5,6
 143 485 143 485 169 518 c 1,7,-1
 268 445 l 1,8,9
 148 280 148 280 83 124 c 1,10,11
 157 146 157 146 218.5 174.5 c 128,-1,12
 280 203 280 203 337 232 c 1,13,-1
 358 131 l 1,14,15
 268 72 268 72 140 16 c 0,16,17
 96 -3 96 -3 52 -18 c 1,18,-1
 25 8 l 1,0,1
EndSplineSet
EndChar

StartChar: circumflex
Encoding: 710 710 243
Width: 355
GlyphClass: 2
Flags: W
LayerCount: 2
Fore
SplineSet
309 675 m 1,0,1
 193 636 193 636 119 598 c 1,2,-1
 71 687 l 1,3,4
 183 748 183 748 302 795 c 1,5,-1
 421 734 l 1,6,7
 448 634 448 634 455.5 592.5 c 128,-1,8
 463 551 463 551 469 518 c 1,9,-1
 370 493 l 1,10,11
 341 602 341 602 309 675 c 1,0,1
EndSplineSet
EndChar

StartChar: caron
Encoding: 711 711 244
Width: 355
GlyphClass: 2
Flags: W
LayerCount: 2
Fore
SplineSet
469 663 m 1,0,1
 367 607 367 607 238 555 c 1,2,-1
 119 616 l 1,3,4
 90 726 90 726 71 832 c 1,5,-1
 170 857 l 1,6,7
 200 743 200 743 230 674 c 1,8,9
 326 706 326 706 359 721 c 128,-1,10
 392 736 392 736 421 751 c 1,11,-1
 469 663 l 1,0,1
EndSplineSet
EndChar

StartChar: ring
Encoding: 730 730 245
Width: 355
GlyphClass: 2
Flags: W
LayerCount: 2
Fore
SplineSet
127 589 m 128,-1,1
 93 623 93 623 93 672.5 c 128,-1,2
 93 722 93 722 126.5 755.5 c 128,-1,3
 160 789 160 789 211 789 c 0,4,5
 259 789 259 789 293 755 c 128,-1,6
 327 721 327 721 327 671 c 0,7,8
 327 623 327 623 293 589 c 128,-1,9
 259 555 259 555 210 555 c 128,-1,0
 161 555 161 555 127 589 c 128,-1,1
176 638.5 m 128,-1,11
 190 625 190 625 209.5 625 c 128,-1,12
 229 625 229 625 242.5 638.5 c 128,-1,13
 256 652 256 652 256 671.5 c 128,-1,14
 256 691 256 691 242.5 705 c 128,-1,15
 229 719 229 719 209.5 719 c 128,-1,16
 190 719 190 719 176 705 c 128,-1,17
 162 691 162 691 162 671.5 c 128,-1,10
 162 652 162 652 176 638.5 c 128,-1,11
EndSplineSet
EndChar

StartChar: tilde
Encoding: 732 732 246
Width: 355
GlyphClass: 2
Flags: W
LayerCount: 2
Fore
SplineSet
489 549 m 1,0,1
 411 525 411 525 349 525 c 1,2,3
 325 532 325 532 303 549.5 c 128,-1,4
 281 567 281 567 259.5 586.5 c 128,-1,5
 238 606 238 606 218 622.5 c 128,-1,6
 198 639 198 639 179 643 c 1,7,-1
 98 637 l 1,8,-1
 88 732 l 1,9,10
 125 744 125 744 168.5 750 c 128,-1,11
 212 756 212 756 226 756 c 1,12,13
 250 749 250 749 272.5 731 c 128,-1,14
 295 713 295 713 316.5 693.5 c 128,-1,15
 338 674 338 674 358 657.5 c 128,-1,16
 378 641 378 641 397 637 c 1,17,-1
 477 643 l 1,18,-1
 489 549 l 1,0,1
EndSplineSet
EndChar

StartChar: endash
Encoding: 8211 8211 247
Width: 689
GlyphClass: 2
Flags: W
LayerCount: 2
Fore
SplineSet
517 178 m 1,0,1
 254 262 254 262 40 306 c 1,2,-1
 80 421 l 1,3,4
 296 376 296 376 558 292 c 1,5,-1
 517 178 l 1,0,1
EndSplineSet
EndChar

StartChar: emdash
Encoding: 8212 8212 248
Width: 917
GlyphClass: 2
Flags: W
LayerCount: 2
Fore
SplineSet
735 122 m 1,0,1
 394 241 394 241 47 299 c 1,2,-1
 83 416 l 1,3,4
 401 358 401 358 772 238 c 1,5,-1
 735 122 l 1,0,1
EndSplineSet
EndChar

StartChar: quoteleft
Encoding: 8216 8216 249
Width: 284
GlyphClass: 2
Flags: W
LayerCount: 2
Fore
SplineSet
353 670 m 1,0,1
 272 548 272 548 206 411 c 1,2,-1
 81 490 l 1,3,4
 161 612 161 612 257 730 c 1,5,-1
 353 670 l 1,0,1
EndSplineSet
EndChar

StartChar: quoteright
Encoding: 8217 8217 250
Width: 289
GlyphClass: 2
Flags: W
LayerCount: 2
Fore
SplineSet
343 653 m 1,0,1
 263 531 263 531 167 413 c 1,2,-1
 71 473 l 1,3,4
 152 596 152 596 218 732 c 1,5,-1
 343 653 l 1,0,1
EndSplineSet
EndChar

StartChar: quotesinglbase
Encoding: 8218 8218 251
Width: 353
GlyphClass: 2
Flags: W
LayerCount: 2
Fore
SplineSet
-84 -157 m 1,0,1
 -3 -34 -3 -34 63 102 c 1,2,-1
 188 23 l 1,3,4
 108 -99 108 -99 12 -217 c 1,5,-1
 -84 -157 l 1,0,1
EndSplineSet
EndChar

StartChar: bullet
Encoding: 8226 8226 255
Width: 380
GlyphClass: 2
Flags: W
LayerCount: 2
Fore
SplineSet
78 229 m 256,0,1
 44 263 44 263 44 313 c 256,2,3
 44 363 44 363 78 397 c 128,-1,4
 112 431 112 431 161 431 c 0,5,6
 212 431 212 431 246 397 c 128,-1,7
 280 363 280 363 280 313 c 256,8,9
 280 263 280 263 246 229 c 128,-1,10
 212 195 212 195 162 195 c 128,-1,11
 112 195 112 195 78 229 c 256,0,1
EndSplineSet
EndChar

StartChar: guilsinglleft
Encoding: 8249 8249 257
Width: 457
GlyphClass: 2
Flags: W
LayerCount: 2
Fore
SplineSet
222 98 m 1,0,1
 152 177 152 177 64 316 c 1,2,-1
 121 416 l 1,3,4
 214 471 214 471 341 513 c 1,5,-1
 391 426 l 1,6,7
 272 368 272 368 202 323 c 1,8,9
 246 239 246 239 300 157 c 1,10,-1
 222 98 l 1,0,1
EndSplineSet
EndChar

StartChar: guilsinglright
Encoding: 8250 8250 258
Width: 493
GlyphClass: 2
Flags: W
LayerCount: 2
Fore
SplineSet
232 504 m 1,0,1
 323 401 323 401 391 293 c 1,2,-1
 334 193 l 1,3,4
 227 131 227 131 113 89 c 1,5,-1
 63 176 l 1,6,7
 174 232 174 232 251 285 c 1,8,9
 224 337 224 337 155 445 c 1,10,-1
 232 504 l 1,0,1
EndSplineSet
EndChar

StartChar: Euro
Encoding: 8364 8364 259
Width: 659
GlyphClass: 2
Flags: W
LayerCount: 2
Fore
SplineSet
31 91 m 1,0,1
 56 222 56 222 105 325 c 1,2,3
 55 352 55 352 32 364 c 1,4,-1
 70 427 l 1,5,6
 97 416 97 416 141 392 c 1,7,-1
 166 430 l 1,8,-1
 97 466 l 1,9,-1
 135 529 l 1,10,11
 161 517 161 517 214 490 c 1,12,13
 309 599 309 599 454 667 c 1,14,-1
 642 541 l 1,15,16
 623 479 623 479 599.5 430.5 c 128,-1,17
 576 382 576 382 564 364 c 1,18,-1
 447 421 l 1,19,20
 480 479 480 479 498 549 c 1,21,22
 411 504 411 504 333 419 c 1,23,24
 349 409 349 409 430 352 c 1,25,-1
 387 290 l 1,26,27
 330 330 330 330 284 359 c 1,28,-1
 259 322 l 1,29,30
 325 279 325 279 365 249 c 1,31,-1
 322 187 l 1,32,-1
 277 218 l 2,33,34
 252 236 252 236 223 254 c 1,35,36
 188 180 188 180 179 105 c 1,37,38
 293 119 293 119 435 180 c 1,39,-1
 475 71 l 1,40,41
 330 -6 330 -6 161 -23 c 1,42,-1
 31 91 l 1,0,1
EndSplineSet
EndChar

StartChar: trademark
Encoding: 8482 8482 260
Width: 968
GlyphClass: 2
Flags: W
LayerCount: 2
Fore
SplineSet
104 418 m 1,0,1
 136 498 136 498 171.5 555 c 128,-1,2
 207 612 207 612 241 659 c 1,3,4
 197 670 197 670 150 679 c 1,5,-1
 198 766 l 1,6,7
 320 749 320 749 474 698 c 1,8,-1
 431 600 l 1,9,10
 328 636 328 636 270 651 c 1,11,-1
 326 604 l 1,12,13
 262 518 262 518 218 420 c 0,14,15
 203 386 203 386 186 344 c 1,16,-1
 104 418 l 1,0,1
671 499 m 1,17,18
 759 603 759 603 844 727 c 1,19,-1
 943 643 l 1,20,21
 897 483 897 483 872 420.5 c 128,-1,22
 847 358 847 358 824 305 c 1,23,-1
 743 371 l 1,24,25
 791 474 791 474 817 551 c 1,26,27
 735 444 735 444 640 329 c 1,28,-1
 567 391 l 1,29,30
 587 511 587 511 609 601 c 1,31,32
 540 497 540 497 469 345 c 1,33,-1
 391 417 l 1,34,35
 484 607 484 607 612 758 c 1,36,-1
 714 668 l 1,37,38
 686 579 686 579 671 499 c 1,17,18
EndSplineSet
EndChar

StartChar: commaaccent
Encoding: 63171 63171 262
Width: 355
GlyphClass: 2
Flags: W
LayerCount: 2
Fore
SplineSet
-55 -236 m 1,0,1
 6 -151 6 -151 68 -4 c 1,2,-1
 190 -77 l 1,3,4
 126 -195 126 -195 43 -290 c 1,5,-1
 -55 -236 l 1,0,1
EndSplineSet
EndChar

StartChar: acute.cap
Encoding: 65537 -1 263
Width: 355
GlyphClass: 2
Flags: W
LayerCount: 2
Fore
SplineSet
399 809 m 1,0,1
 262 747 262 747 114 708 c 1,2,-1
 75 805 l 1,3,4
 215 860 215 860 264.5 884.5 c 128,-1,5
 314 909 314 909 348 928 c 1,6,-1
 399 809 l 1,0,1
EndSplineSet
EndChar

StartChar: dieresis.cap
Encoding: 65538 -1 264
Width: 355
GlyphClass: 2
Flags: W
LayerCount: 2
Fore
SplineSet
162 812 m 0,0,1
 139 835 139 835 139 868 c 256,2,3
 139 901 139 901 162.5 924.5 c 128,-1,4
 186 948 186 948 219 948 c 256,5,6
 252 948 252 948 275 924.5 c 128,-1,7
 298 901 298 901 298 868 c 256,8,9
 298 835 298 835 275 812 c 128,-1,10
 252 789 252 789 219 789 c 256,11,12
 186 789 186 789 162 812 c 0,0,1
419 716 m 256,13,14
 396 739 396 739 396 772 c 256,15,16
 396 805 396 805 419 828 c 128,-1,17
 442 851 442 851 475 851 c 256,18,19
 508 851 508 851 531 828 c 128,-1,20
 554 805 554 805 554 772 c 256,21,22
 554 739 554 739 531 716 c 128,-1,23
 508 693 508 693 475 693 c 256,24,25
 442 693 442 693 419 716 c 256,13,14
EndSplineSet
EndChar

StartChar: grave.cap
Encoding: 65539 -1 265
Width: 355
GlyphClass: 2
Flags: W
LayerCount: 2
Fore
SplineSet
322 666 m 1,0,1
 227 766 227 766 101 859 c 1,2,-1
 181 950 l 1,3,4
 311 837 311 837 394 741 c 1,5,-1
 322 666 l 1,0,1
EndSplineSet
EndChar

StartChar: ring.cap
Encoding: 65540 -1 266
Width: 355
GlyphClass: 2
Flags: W
LayerCount: 2
Fore
SplineSet
188 670 m 128,-1,1
 154 704 154 704 154 753.5 c 128,-1,2
 154 803 154 803 187.5 836.5 c 128,-1,3
 221 870 221 870 272 870 c 0,4,5
 322 870 322 870 354 836 c 0,6,7
 388 801 388 801 388 752 c 0,8,9
 388 705 388 705 354 670 c 0,10,11
 322 636 322 636 272 636 c 128,-1,0
 222 636 222 636 188 670 c 128,-1,1
237 719.5 m 128,-1,13
 251 706 251 706 270.5 706 c 128,-1,14
 290 706 290 706 304 719.5 c 128,-1,15
 318 733 318 733 318 752.5 c 128,-1,16
 318 772 318 772 304 786 c 128,-1,17
 290 800 290 800 270.5 800 c 128,-1,18
 251 800 251 800 237 786 c 128,-1,19
 223 772 223 772 223 752.5 c 128,-1,12
 223 733 223 733 237 719.5 c 128,-1,13
EndSplineSet
EndChar

StartChar: circumflex.cap
Encoding: 65541 -1 267
Width: 355
GlyphClass: 2
Flags: W
LayerCount: 2
Fore
SplineSet
487 628 m 1,0,1
 446 727 446 727 402 804 c 1,2,3
 318 781 318 781 278 763.5 c 128,-1,4
 238 746 238 746 209 733 c 1,5,-1
 161 822 l 1,6,7
 251 871 251 871 302.5 890 c 128,-1,8
 354 909 354 909 392 921 c 1,9,-1
 511 860 l 1,10,11
 552 778 552 778 586 653 c 1,12,-1
 487 628 l 1,0,1
EndSplineSet
EndChar

StartChar: caron.cap
Encoding: 65542 -1 268
Width: 355
GlyphClass: 2
Flags: W
LayerCount: 2
Fore
SplineSet
345 743 m 1,0,1
 452 773 452 773 538 814 c 1,2,-1
 586 726 l 1,3,4
 495 676 495 676 443.5 657.5 c 128,-1,5
 392 639 392 639 355 627 c 1,6,-1
 236 688 l 1,7,8
 199 763 199 763 184.5 812 c 128,-1,9
 170 861 170 861 161 895 c 1,10,-1
 260 920 l 1,11,12
 304 813 304 813 345 743 c 1,0,1
EndSplineSet
EndChar

StartChar: macron.cap
Encoding: 65543 -1 269
Width: 355
GlyphClass: 2
Flags: W
LayerCount: 2
Fore
SplineSet
468 730 m 1,0,1
 315 799 315 799 142 842 c 1,2,-1
 184 956 l 1,3,4
 348 915 348 915 515 842 c 1,5,-1
 468 730 l 1,0,1
EndSplineSet
EndChar

StartChar: tilde.cap
Encoding: 65544 -1 270
Width: 355
GlyphClass: 2
Flags: W
LayerCount: 2
Fore
SplineSet
406 661 m 1,0,1
 382 668 382 668 358.5 685.5 c 128,-1,2
 335 703 335 703 313 722.5 c 128,-1,3
 291 742 291 742 271.5 758.5 c 128,-1,4
 252 775 252 775 236 779 c 1,5,-1
 155 774 l 1,6,-1
 145 868 l 1,7,8
 187 882 187 882 228 887.5 c 128,-1,9
 269 893 269 893 283 893 c 1,10,11
 317 883 317 883 376 830 c 0,12,13
 398 811 398 811 418 794.5 c 128,-1,14
 438 778 438 778 454 774 c 1,15,-1
 534 779 l 1,16,-1
 545 686 l 1,17,18
 503 672 503 672 461 666.5 c 128,-1,19
 419 661 419 661 406 661 c 1,0,1
EndSplineSet
EndChar
